<svg xmlns="http://www.w3.org/2000/svg" width="0" height="0" style="position:absolute">
    <defs>
        <svg viewBox="0 0 17.55 16.88" id="cross" xmlns="http://www.w3.org/2000/svg">
            <path d="M0 15.79l1.04 1.09.54-.52 7.19-6.88 7.2 6.88.54.52 1.04-1.09-.54-.51-7.15-6.84 7.15-6.84.54-.52L16.51 0l-.54.52-7.2 6.88L1.58.52 1.04 0 0 1.08l.54.52 7.15 6.84-7.15 6.84-.54.51z"/>
        </svg>
        <svg viewBox="0 0 21.3 10.65" id="chevron" xmlns="http://www.w3.org/2000/svg">
            <path d="M10.73 10.64L0 1.52 1.3 0l9.43 8L20 .11l1.3 1.52z"/>
        </svg>
        <svg viewBox="0 0 32 32" id="dots" xmlns="http://www.w3.org/2000/svg">
            <circle cx="16" cy="16" r="3"/>
            <circle cx="16" cy="28.1" r="3"/>
            <circle cx="16" cy="3.9" r="3"/>
        </svg>
        <svg viewBox="0 0 32 32" id="navigational_chevron_up" xmlns="http://www.w3.org/2000/svg">
            <path class="hzst0" d="M16.6 9.2c-.4-.3-.9-.3-1.2 0l-15 12 1.2 1.6L16 11.3l14.4 11.5 1.2-1.6-15-12z"/>
        </svg>
        <svg viewBox="0 0 32 32" id="add" xmlns="http://www.w3.org/2000/svg">
            <path d="M32 15H17V0h-2v15H0v2h15v15h2V17h15z"/>
        </svg>
        <svg viewBox="0 0 32 32" id="min" xmlns="http://www.w3.org/2000/svg">
            <path d="M0 15h32v2H0z"/>
        </svg>
        <svg viewBox="0 0 32 32" id="navigational_chevron_down" xmlns="http://www.w3.org/2000/svg">
            <path class="hwst0" d="M30.4 9.2L16 20.7 1.6 9.2.4 10.8l15 12c.2.1.4.2.6.2s.4-.1.6-.2l15-12-1.2-1.6z"/>
        </svg>
        <svg viewBox="0 0 32 32" id="navigational_chevron_left" xmlns="http://www.w3.org/2000/svg">
            <path class="iast0" d="M22.8 1.6L21.2.4l-12 15c-.3.4-.3.9 0 1.2l12 15 1.6-1.2L11.3 16 22.8 1.6z"/>
        </svg>
        <svg viewBox="0 0 32 32" id="navigational_chevron_right" xmlns="http://www.w3.org/2000/svg">
            <path class="ibst0" d="M22.8 15.4l-12-15-1.6 1.2L20.7 16 9.2 30.4l1.6 1.2 12-15c.3-.3.3-.9 0-1.2z"/>
        </svg>
        <svg viewBox="0 0 32 32" id="circle-exclamation" xmlns="http://www.w3.org/2000/svg">
            <circle class="fjst0" cx="16" cy="24" r="1.5"/>
            <path class="fjst0" d="M15 8h2v11h-2z"/>
            <path class="fjst0" d="M16 0C7.2 0 0 7.2 0 16s7.2 16 16 16 16-7.2 16-16S24.8 0 16 0zm0 30C8.3 30 2 23.7 2 16S8.3 2 16 2s14 6.3 14 14-6.3 14-14 14z"/>
        </svg>
        <svg viewBox="0 0 32 32" id="brand_arrow_s" xmlns="http://www.w3.org/2000/svg">
            <path d="M32 17.2V17v-.2-.2c-.1-.1-.1-.2-.2-.3l-11-11c-.4-.4-1-.4-1.4 0s-.4 1 0 1.4l9.3 9.3H1c-.6 0-1 .4-1 1s.4 1 1 1h27.4l-9.1 8.3c-.4.4-.4 1-.1 1.4.2.2.5.3.7.3s.5-.1.7-.3l11-10c.1-.1.1-.1.1-.2l.1-.1.2-.2z"/>
        </svg>
        <svg viewBox="0 0 32 32" id="brand_profile_s" xmlns="http://www.w3.org/2000/svg">
            <path d="M16 0C7.2 0 0 7.2 0 16s7.2 16 16 16 16-7.2 16-16S24.8 0 16 0zm0 30c-3.4 0-6.5-1.2-8.9-3.2l1.6-5.6c.3-1.3 1.5-2.2 2.8-2.2h8.9c1.3 0 2.5.9 2.9 2.2l1.6 5.6c-2.4 2-5.5 3.2-8.9 3.2zm-5-18c0-2.8 2.2-5 5-5s5 2.2 5 5-2.2 5-5 5-5-2.2-5-5zm15.5 13.2l-1.3-4.5c-.6-2-2.4-3.5-4.4-3.6 1.3-1.3 2.1-3.1 2.1-5 0-3.9-3.1-7-7-7s-7 3.1-7 7c0 2 .8 3.8 2.1 5-2.1.2-3.9 1.6-4.4 3.6l-1.3 4.5C3.3 22.7 2 19.5 2 16 2 8.3 8.3 2 16 2s14 6.3 14 14c0 3.5-1.3 6.7-3.5 9.2z"/>
        </svg>
        <svg viewBox="0 0 32 32" id="brand_ship_s" xmlns="http://www.w3.org/2000/svg">
            <path d="M32 9.5c0-.1 0-.2-.1-.4V9c0-.1-.1-.2-.2-.2l-.1-.1c-.1-.1-.2-.1-.3-.2L16.3 2c-.3-.1-.5-.1-.8 0L.5 8.5c-.1 0-.2.1-.3.2 0 0 0 .1-.1.1.1.1 0 .2 0 .3v.1c-.1.1-.1.2-.1.3v14c0 .4.2.8.6.9l15 6c.1 0 .2.1.4.1.1 0 .3 0 .4-.1l15-6.1c.4-.2.6-.5.6-.9V9.5zm-16 4.9l-5.7-2.3L22.9 7l5.5 2.4-12.4 5zm0-10.3L20.4 6 7.6 11.1l-4-1.6L16 4.1zM2 11l13 5.2V28L2 22.8V11zm15 17V16.2L30 11v11.7L17 28z"/>
        </svg>
        <svg viewBox="0 0 32 32" id="brand_courier_s" xmlns="http://www.w3.org/2000/svg">
            <path d="M27.7 21.3c-.1-.2-.4-.3-.7-.3h-.6l-.1-.9c-.5-3-2.8-5.4-5.7-6 1.8-1.5 2.9-3.7 2.9-6.2 0-.3 0-.7-.1-1H26c.6 0 1-.4 1-1s-.4-1-1-1h-3.1c-1.2-2.9-4.1-5-7.4-5-4.4 0-8 3.6-8 8 0 2.5 1.2 4.8 3 6.2-2.7.7-4.8 3-5.2 5.9L4 30.9c-.1.5.3 1 .9 1.1H5c.5 0 .9-.4 1-.9l1.3-10.7c.3-2.5 2.4-4.4 5-4.4h6.9c2.6 0 4.7 1.9 5.1 4.4l.1.6h-5.3l-.2-.4c-.2-.5-.8-.7-1.3-.4-.5.2-.7.8-.4 1.3l5 10c.2.4.5.6.9.6.2 0 .3 0 .4-.1.5-.2.7-.8.4-1.3L20.1 23h5.8l-.9 7.9c-.1.5.3 1 .9 1.1h.1c.5 0 .9-.4 1-.9l1-9c0-.3-.1-.6-.3-.8zM15.5 2c2.2 0 4.1 1.2 5.2 3H10.3c1.1-1.8 3-3 5.2-3zm-6 6c0-.3 0-.7.1-1h11.8c.1.3.1.7.1 1 0 3.3-2.7 6-6 6s-6-2.7-6-6z"/>
            <path d="M11.9 20.6c-.1-.1-.1-.2-.2-.3l-.1-.1c-.1 0-.1-.1-.2-.1s-.1 0-.2-.1H10.6s-.1 0-.1.1c-.1 0-.1.1-.2.1l-.1.1c0 .1-.1.1-.1.2s0 .1-.1.2v.1l-2 10c-.1.5.2 1.1.8 1.2H9c.5 0 .9-.3 1-.8l1.3-6.7 2.8 6.9c.2.4.5.6.9.6.1 0 .2 0 .4-.1.5-.2.8-.8.6-1.3l-4.1-10z"/>
        </svg>
        <svg viewBox="0 0 32 32" id="agent" xmlns="http://www.w3.org/2000/svg">
            <path class="abst0" d="M27.9 29.8c-.4-2.1-.9-5.1-1.3-6.9-.6-3.1-3.1-5.4-6.2-5.8 1.8-1.8 2.2-4.6 1.1-6.9v-.1c1.6-1 2.5-2.3 2.5-3.7 0-2.8-3.6-5-8.2-5-4.7 0-8.3 2.2-8.3 5 0 1.4.9 2.7 2.6 3.7 0 .1.1.3.1.4-.9 2.3-.4 4.9 1.3 6.6-3.1.4-5.6 2.7-6.4 5.8-.2 1-.5 2.6-.9 4.2-.2 1-.4 2.1-.6 3.1-.1.5.2 1.1.8 1.2h.2c.5 0 .9-.3 1-.8.2-1 .4-2 .6-3.1.3-1.6.7-3.2.9-4.2.6-2.5 2.8-4.3 5.3-4.3h2.5v11.4c0 .6.4 1 1 1s1-.4 1-1V19h2.5c2.5.1 4.6 1.9 5.2 4.3.4 1.7.9 4.8 1.3 6.8l.1.5c.1.5.6.9 1.2.8.5-.1.9-.6.8-1.2l-.1-.4zM19.6 9.4c0 .7-1.5 1.6-3.8 1.6S12 10 12 9.4v-.7c1.3-.1 2.5-.2 3.8-.2 1.2 0 2.5 0 3.8.1v.8zm-7.8 2.7c1 .6 2.4 1 4 1 1.7 0 3.2-.4 4.2-1.1.3 1.5-.2 3-1.4 4-1.5 1.3-3.7 1.3-5.3.1-1.2-1-1.7-2.5-1.5-4zM9.5 6.4c0-1.4 2.7-3 6.3-3 3.7 0 6.2 1.6 6.2 3 0 .4-.2.8-.5 1.1-.1-.4-.4-.7-.9-.8-1.6-.2-3.3-.3-4.9-.2-1.6 0-3.3.1-4.9.3-.4 0-.8.4-.9.8-.2-.4-.4-.8-.4-1.2z"/>
        </svg>
        <svg viewBox="0 0 32 32" id="formatting_document" xmlns="http://www.w3.org/2000/svg">
            <path class="mist0" d="M27 0H11c-.3 0-.5.1-.7.3l-6 6c-.2.2-.3.4-.3.7v24c0 .6.4 1 1 1h22c.6 0 1-.4 1-1V1c0-.6-.4-1-1-1zM11 2.4V7H6.4L11 2.4zM26 30H6V9h6c.6 0 1-.4 1-1V2h13v28z"/>
            <path class="mist0" d="M9 12h14v2H9zM9 17h14v2H9zM9 22h10v2H9z"/>
        </svg>
        <svg viewBox="0 0 32 32" id="brand_help_questions_s" xmlns="http://www.w3.org/2000/svg">
            <path d="M15 21h2v2h-2zM16 8.5c-4 0-4 3.5-4 3.5h2c0-.5.2-1 .6-1.4.4-.4.9-.6 1.4-.6s1.1.2 1.4.6c.4.4.6.9.6 1.4 0 .6-.1 1.2-.4 1.7-.4.6-.8 1.1-1.3 1.7-.5.4-.9.8-1.2 1.4-.1.7-.2 1.4-.1 2.2h2c0-2.2-.1-2.1.4-2.6.6-.6 1.2-1.3 1.7-2s.8-1.6.9-2.4c0-3-2.7-3.5-4-3.5z"/>
            <path d="M16 0C7.2 0 0 7.2 0 16s7.2 16 16 16 16-7.2 16-16S24.8 0 16 0zm0 30C8.3 30 2 23.7 2 16S8.3 2 16 2s14 6.3 14 14-6.3 14-14 14z"/>
        </svg>
        <svg viewBox="0 0 32 32" id="brand_currency_usd_s" xmlns="http://www.w3.org/2000/svg">
            <path d="M16 0C7.2 0 0 7.2 0 16s7.2 16 16 16 16-7.2 16-16S24.8 0 16 0zm0 30C8.3 30 2 23.7 2 16S8.3 2 16 2s14 6.3 14 14-6.3 14-14 14z"/>
            <path d="M18 13.5c0 .6.4 1 1 1s1-.4 1-1c0-1.8-1.3-3.2-3-3.4V8c0-.6-.4-1-1-1s-1 .4-1 1v2.1c-1.7.2-3 1.7-3 3.4s1.3 3.2 3 3.4v3c-.6-.2-1-.8-1-1.4s-.4-1-1-1-1 .4-1 1c0 1.8 1.3 3.2 3 3.4V24c0 .6.4 1 1 1s1-.4 1-1v-2.1c1.7-.2 3-1.7 3-3.4s-1.3-3.2-3-3.4v-3c.6.2 1 .7 1 1.4zm-4 0c0-.7.4-1.2 1-1.4v2.8c-.6-.2-1-.7-1-1.4zm4 5c0 .7-.4 1.2-1 1.4v-2.8c.6.2 1 .7 1 1.4z"/>
        </svg>
        <svg viewBox="0 0 32 32" id="brand_returns_s" xmlns="http://www.w3.org/2000/svg">
            <path d="M17 8h-2c-1.4 0-4 1-4 5v5.6l-1.3-1.3c-.4-.4-1-.4-1.4 0-.4.4-.4 1 0 1.4l3 3c.2.2.5.3.7.3s.5-.1.7-.3l3-3c.4-.4.4-1 0-1.4-.4-.4-1-.4-1.4 0L13 18.6V13c0-2.8 1.7-3 2-3h2c.1 0 2 0 2 3v9c0 .6.4 1 1 1s1-.4 1-1v-9c0-4-2.6-5-4-5z"/>
            <path d="M30.7 13.3l-12-12C18 .6 17.1.1 16.1 0h-.2c-1 .1-1.9.6-2.6 1.3l-12 12C.6 14 .1 14.9 0 15.9v.2c.1 1 .6 1.9 1.3 2.6l12 12c.7.7 1.6 1.2 2.6 1.3h.2c1-.1 1.9-.6 2.6-1.3l12-12c.7-.7 1.2-1.6 1.3-2.6v-.3c-.1-.9-.6-1.8-1.3-2.5zm-1.4 4l-12 12c-.4.4-.8.6-1.3.7-.5-.1-.9-.3-1.3-.7l-12-12c-.3-.4-.6-.8-.7-1.3.1-.5.3-.9.7-1.3l12-12c.4-.3.8-.6 1.3-.7.5.1.9.3 1.3.7l12 12c.4.3.6.8.7 1.3-.1.5-.4.9-.7 1.3z"/>
        </svg>
        <svg viewBox="0 0 32 32" id="exclamation-triangle" xmlns="http://www.w3.org/2000/svg">
            <path class="lwst0" d="M14.9 22.6h2v2h-2z"/>
            <path d="M14.9 17l.8 4.9h.5l.7-4.9v-3.4h-2z"/>
            <path d="M31.8 27.4L17.6 3c-.3-.6-.9-1-1.6-1h-.3c-.6.1-1.1.5-1.4 1.1L.2 27.4c-.2.3-.3.6-.3.9 0 .9.7 1.7 1.6 1.7h28.8c.5 0 1-.3 1.5-.8.3-.5.3-1.2 0-1.8zM2.2 28L15.9 4.3 29.7 28H2.2z"/>
        </svg>
        <svg viewBox="0 0 32 32" id="brand_rate_ship_s" xmlns="http://www.w3.org/2000/svg">
            <path d="M32 7c0-.1 0-.1 0 0 0-.2 0-.3-.1-.4v-.1c-.1-.1-.1-.2-.2-.3h-.1c-.1 0-.1-.1-.2-.1l-10-5c-.3-.1-.6-.1-.9 0l-10 5c-.1 0-.1.1-.2.1h-.1c-.1.1-.2.2-.2.3v.1c0 .1-.1.2-.1.3V10c0 .6.4 1 1 1s1-.4 1-1V8.6l8 4v7.8l-2.6-1.3c-.5-.2-1.1 0-1.3.4s0 1.1.4 1.3l4 2c.3.2.4.2.6.2s.3 0 .4-.1l10-5c.3-.2.6-.5.6-.9V7zM21 3.1l2.8 1.4L16 8.4 13.2 7 21 3.1zm-2.8 6.4L26 5.6 28.8 7 21 10.9l-2.8-1.4zM22 20.4v-7.8l8-4v7.8l-8 4z"/>
            <path d="M13 12H2c-1.1 0-2 .9-2 2v16c0 1.1.9 2 2 2h11c1.1 0 2-.9 2-2V14c0-1.1-.9-2-2-2zm0 18H2V14h11v16z"/>
            <path d="M4 21h7c.6 0 1-.4 1-1v-3c0-.6-.4-1-1-1H4c-.6 0-1 .4-1 1v3c0 .6.4 1 1 1zm1-3h5v1H5v-1z"/>
        </svg>
        <svg viewBox="0 0 32 32" id="brand_track_s" xmlns="http://www.w3.org/2000/svg">
            <path d="M21 12c0 .6.4 1 1 1s1-.4 1-1V5.9c0-.1 0-.2-.1-.3v-.1c0-.1-.1-.2-.2-.2-.1-.1-.2-.1-.3-.2l-10-4c-.2-.1-.5-.1-.7 0l-11 4c-.1 0-.2.1-.3.2l-.1.1c-.1 0-.1.1-.2.1v.1c-.1.1-.1.2-.1.3V17c0 .4.2.7.6.9l11 5c.1.1.3.1.4.1.2 0 .4-.1.5-.2.3-.2.5-.5.5-.8V11.6l8-4V12zm-10 8.5l-9-4.1V7.6l9 4.1v8.8zm1-10.6L3.6 6.1l8.4-3 7.6 3L12 9.9z"/>
            <path d="M31.7 30.3l-5.1-5.1C27.5 24 28 22.6 28 21c0-3.9-3.1-7-7-7s-7 3.1-7 7 3.1 7 7 7c1.6 0 3-.5 4.2-1.4l5.1 5.1c.2.2.5.3.7.3s.5-.1.7-.3c.4-.4.4-1 0-1.4zM21 26c-2.8 0-5-2.2-5-5s2.2-5 5-5 5 2.2 5 5-2.2 5-5 5z"/>
        </svg>
        <svg viewBox="0 0 32 32" id="payment_currency_amount" xmlns="http://www.w3.org/2000/svg">
            <path class="nyst0" d="M16 0C7.2 0 0 7.2 0 16s7.2 16 16 16 16-7.2 16-16S24.8 0 16 0zm0 30C8.3 30 2 23.7 2 16S8.3 2 16 2s14 6.3 14 14-6.3 14-14 14z"/>
            <path class="nyst0" d="M17 15.2v-5.1c.8.2 1.5.7 1.5 1.9h2c0-2.1-1.3-3.6-3.5-3.9V6h-2v2.1c-1 .2-1.8.6-2.4 1.2-.8.8-1.1 1.9-1.1 3.3.1 2.5 2.3 3.7 3.5 4.2v5.1c-1.3-.5-1.5-2.1-1.5-2.8h-2c0 2.2 1.1 4.4 3.5 4.9v2h2v-2.1c1.3-.2 2.1-.8 2.6-1.3.8-.9 1.1-2.3.9-3.7-.4-2.3-2.4-3.3-3.5-3.7zm-3.5-2.7c0-.8.1-1.4.5-1.8.3-.3.6-.4 1-.5v4.4c-.7-.5-1.5-1.1-1.5-2.1zm4.6 8.8c-.3.3-.6.5-1.1.6v-4.5c.7.3 1.4.9 1.5 1.7.1.6.1 1.5-.4 2.2z"/>
        </svg>
        <svg viewBox="0 0 32 32" id="payment_currency_refund" xmlns="http://www.w3.org/2000/svg">
            <path class="oast0" d="M2.5 12.4C4.4 5 12.2.5 19.7 2.5c2.8.8 5.3 2.4 7.1 4.5H23v2h6c.6 0 1-.4 1-1V2h-2v3.4c-2.1-2.3-4.8-4-7.8-4.9C11.6-1.7 2.8 3.4.5 11.9.2 13.4 0 14.8 0 16h2c0-1.1.2-2.3.5-3.6zM30 16c0 1.1-.1 2.1-.5 3.5-.9 3.6-3.3 6.6-6.5 8.5-3.3 1.9-7 2.4-10.7 1.4-2.8-.8-5.2-2.3-7-4.4H9v-2H3.9s0-.1-.1-.1l-.1.1H3c-.6 0-1 .4-1 1v6h2v-3.5c2.1 2.3 4.8 4 7.8 4.9 1.4.4 2.8.5 4.1.5 2.8 0 5.5-.7 8-2.1 3.7-2.1 6.4-5.6 7.5-9.7.4-1.6.5-2.8.5-4H30z"/>
            <path class="oast0" d="M17 26v-2.1c1.3-.2 2.1-.8 2.6-1.3.8-.9 1.1-2.3.9-3.7-.4-2.2-2.4-3.2-3.5-3.6v-5.1c.8.2 1.5.7 1.5 1.9h2c0-2.1-1.3-3.6-3.5-3.9V6h-2v2.1c-1 .2-1.8.6-2.4 1.2-.8.8-1.1 1.9-1.1 3.3.1 2.5 2.3 3.7 3.5 4.2v5.1c-1.3-.5-1.5-2.1-1.5-2.8h-2c0 2.2 1.1 4.4 3.5 4.9v2h2zm1.5-6.9c.1.5.1 1.5-.5 2.1-.3.3-.6.5-1.1.6v-4.5c.8.4 1.5 1 1.6 1.8zm-5-6.6c0-.8.1-1.4.5-1.8.3-.3.6-.4 1-.5v4.4c-.7-.5-1.5-1.1-1.5-2.1z"/>
        </svg>
        <svg viewBox="0 0 32 33" id="person-handtruck" xmlns="http://www.w3.org/2000/svg">
            <path d="M31.8 25.4c-.3-.5-.9-.6-1.4-.3l-3.7 2.5-7.3-9.8c.9-.3 1.6-1.2 1.6-2.3 0-.7-.3-1.3-.9-1.8l-2.4-1.9-1.4-2.3C16 8.9 15 8 14 8h-.5c.5 0 1-.1 1.4-.3.9-.4 1.5-1.1 1.8-1.9.2-.4.3-.9.3-1.3h.5c.6 0 1-.4 1-1s-.4-1-1-1h-1.1c-.4-.6-.9-1-1.6-1.3-.9-.3-1.8-.3-2.7.1-.9.4-1.5 1.1-1.8 1.9-.3.9-.3 1.8.1 2.7.4.9 1.1 1.5 1.9 1.8.3.2.8.3 1.2.3H10c-1.3 0-2.5 1.1-2.5 2.4L7 18.5c0 .7.3 1.4.9 2.2l-2.1 2.5L1 26.5c-.6.5-1 1.3-1 2.1C0 29.9 1.1 31 2.4 31c.4 0 .8-.1 1.2-.3l5.9-2.8c.2-.1.5-.4.7-.6l.1-.1 1.4-1.7.5.6 1.8 5.3v.1c.3 1 1.3 1.6 2.3 1.6 1.3 0 2.4-1.1 2.4-2.4 0-.2 0-.4-.1-.6l-1.7-6.3-1.9-5.5v-.1c.2.1.4.1.7.1.5 0 .9-.1 1.3-.4l6.2 8.3c-1.7.2-3 1.6-3 3.4 0 1.9 1.5 3.4 3.4 3.4 1.8 0 3.2-1.4 3.4-3.1 0 0 .1 0 .1-.1l4.5-3c.4-.3.5-.9.2-1.4zM12 4.5h3c0 .2 0 .4-.1.5-.1.4-.4.7-.8.8-.4.2-.8.2-1.1.1-.6-.2-1-.8-1-1.4zM8.8 25.8s-.1.1 0 0l-.3.3-5.7 2.7s-.1 0-.1.1c0 0-.1.1-.2.1-.3 0-.5-.2-.5-.4 0-.1.1-.3.2-.4l4.9-3.4.2-.2 1.9-2.3 1.2 1.5-1.6 2zm7.3-9.8c0 .2-.2.3-.4.3-.1 0-.1 0-.2-.1L11.6 14c-.5-.3-1.1-.1-1.4.4-.3.5-.1 1.1.4 1.4l2.5 1.4v1.2c0 .1 0 .2.1.3l2 5.4 1.6 6.2v.1c0 .2-.2.4-.4.4s-.4-.1-.4-.3v-.1l-1.9-5.5c0-.1-.1-.2-.2-.3l-4-5c-.9-.6-.9-1-.9-1l.5-8c0-.2.3-.5.5-.5h4c.2 0 .6.3.7.5l1.5 2.5c.1.1.1.2.2.3l2.5 2c.1.1.2.2.2.3 0 .2-.2.4-.4.4-.1 0-.2-.1-.3-.1-.1-.1-.1-.1-.2-.1-.1-.9-.5-1.6-1.4-2.1l-1.3-.5v-.1l-.5-1c-.2-.5-.8-.7-1.3-.4-.2.1-.3.2-.4.3l-.2-.7c-.2-.5-.7-.8-1.3-.6-.5.2-.8.7-.6 1.3l.5 1.5c.1.3.3.5.6.6l3.7 1.6c.1.1.2.2.2.4l-.1-.2zm7.5 15c-.8 0-1.4-.6-1.4-1.4 0-.8.6-1.4 1.4-1.4.8 0 1.4.6 1.4 1.4 0 .8-.7 1.4-1.4 1.4zm2.6-5.4c.2.3.5.4.8.4.2 0 .4-.1.6-.2l3.5-2.5c.4-.3.6-.9.2-1.4l-2.5-3.5c-.3-.4-.8-.5-1.2-.3l-1.3-1.7c-.3-.4-.9-.5-1.4-.2l-3 2c-.2.2-.4.4-.4.7 0 .3 0 .5.2.8l4.5 5.9zm1.6-5.2l1.3 1.9-1.9 1.4-1.4-1.8 2-1.5zm-2.5-2l.7.9-1.3.9-.7-.9 1.3-.9z"/>
        </svg>
        <svg viewBox="0 0 32 32" id="utility_information" xmlns="http://www.w3.org/2000/svg">
            <path class="pzst0" d="M16 0C7.2 0 0 7.2 0 16s7.2 16 16 16 16-7.2 16-16S24.8 0 16 0zm0 30C8.3 30 2 23.7 2 16S8.3 2 16 2s14 6.3 14 14-6.3 14-14 14z"/>
            <circle class="pzst0" cx="15" cy="9" r="2"/>
            <path class="pzst0" d="M17 14c0-.6-.4-1-1-1h-3v2h2v7h-2v2h6v-2h-2v-8z"/>
        </svg>
        <svg viewBox="0 0 32 32" id="status_warning" xmlns="http://www.w3.org/2000/svg">
            <path class="pbst0" d="M31.8 27.1L17.7 3c-.5-.9-1.2-1-1.7-1-.4 0-1.2.1-1.7 1L.2 27.2c-.2.4-.2.6-.2.9 0 1 .9 1.9 1.9 1.9h28.2c.1 0 .5 0 .9-.2l.2-.1c.9-.6 1.1-1.7.6-2.6zM2 28L16 4.1 29.9 28H2z"/>
            <circle class="pbst0" cx="16" cy="24" r="2"/>
            <path class="pbst0" d="M15 9h2v11h-2z"/>
        </svg>
        <svg viewBox="0 0 32 32" id="social_facebook" xmlns="http://www.w3.org/2000/svg">
            <path class="olst0" d="M16 0C7.2 0 0 7.2 0 16s7.2 16 16 16 16-7.2 16-16S24.8 0 16 0zm0 30C8.3 30 2 23.7 2 16S8.3 2 16 2s14 6.3 14 14-6.3 14-14 14z"/>
            <path class="olst0" d="M14 11.9v2.2h-2.5V17H14v6.9c.5.1 1 .1 1.6.1.5 0 1 0 1.6-.1V17h2.2v-.1l.4-2.9H17v-1.9c0-.8.4-1.6 1.6-1.6H20V8.2S18.9 8 17.8 8C15.5 8 14 9.4 14 11.9z"/>
        </svg>
        <svg viewBox="0 0 32 32" id="social_instagram" xmlns="http://www.w3.org/2000/svg">
            <path class="omst0" d="M16 0C7.2 0 0 7.2 0 16s7.2 16 16 16 16-7.2 16-16S24.8 0 16 0zm0 30C8.3 30 2 23.7 2 16S8.3 2 16 2s14 6.3 14 14-6.3 14-14 14z"/>
            <path class="omst0" d="M22.6 9.3c-.4-.4-.9-.7-1.4-.9-.5-.2-1.1-.3-1.9-.4h-6.6c-.9 0-1.4.2-1.9.4s-1 .5-1.4.9c-.4.4-.7.9-.9 1.4s-.3 1.1-.4 1.9v6.6c0 .9.2 1.4.4 1.9s.5 1 .9 1.4c.4.4.9.7 1.4.9.5.2 1.1.3 1.9.4h6.6c.9 0 1.4-.2 1.9-.4s1-.5 1.4-.9c.4-.4.7-.9.9-1.4s.3-1.1.4-1.9v-3.3-3.3c0-.9-.2-1.4-.4-1.9s-.5-1-.9-1.4zm-.1 6.6v3.2c0 .8-.2 1.2-.3 1.5-.1.4-.3.6-.6.9-.3.3-.5.5-.9.6-.3.1-.7.2-1.5.3h-6.4c-.8 0-1.2-.2-1.5-.3-.4-.1-.6-.3-.9-.6-.3-.3-.5-.5-.6-.9-.1-.3-.2-.7-.3-1.5v-3.2-3.2c0-.8.2-1.2.3-1.5.1-.4.3-.6.6-.9.3-.3.5-.5.9-.6.3-.1.7-.2 1.5-.3h6.4c.8 0 1.2.2 1.5.3.4.1.6.3.9.6.3.3.5.5.6.9.1.3.2.7.3 1.5v3.2z"/>
            <path class="omst0" d="M16 11.9c-2.3 0-4.1 1.8-4.1 4.1s1.8 4.1 4.1 4.1 4.1-1.8 4.1-4.1-1.8-4.1-4.1-4.1zm0 6.8c-1.5 0-2.7-1.2-2.7-2.7s1.2-2.7 2.7-2.7 2.7 1.2 2.7 2.7-1.2 2.7-2.7 2.7z"/>
            <circle class="omst0" cx="20.3" cy="11.7" r="1"/>
        </svg>
        <svg viewBox="0 0 32 32" id="social_linkedin" xmlns="http://www.w3.org/2000/svg">
            <path class="onst0" d="M16-.1c-8.8 0-16 7.2-16 16s7.2 16 16 16 16-7.2 16-16-7.2-16-16-16zm0 30c-7.7 0-14-6.3-14-14s6.3-14 14-14 14 6.3 14 14-6.3 14-14 14z"/>
            <path class="onst0" d="M10 13.7h3.4v8.1H10z"/>
            <circle class="onst0" cx="11.7" cy="10.7" r="1.7"/>
            <path class="onst0" d="M17.7 14.5v-.8H15v8.2h2.8v-4.7c0-1.6 2.5-1.5 2.7 0V22h2.6v-6.4c-.5-2.6-4.6-2.5-5.4-1.1z"/>
        </svg>
        <svg viewBox="0 0 32 32" id="social_email" xmlns="http://www.w3.org/2000/svg">
            <path class="oost0" d="M16 0C7.2 0 0 7.2 0 16s7.2 16 16 16 16-7.2 16-16S24.8 0 16 0zm0 30C8.3 30 2 23.7 2 16S8.3 2 16 2s14 6.3 14 14-6.3 14-14 14z"/>
            <path class="oost0" d="M25 9H7c-.6 0-1 .4-1 1v12c0 .6.4 1 1 1h18c.6 0 1-.4 1-1V10c0-.6-.4-1-1-1zm-2.6 2L16 16.7 9.6 11h12.8zM8 21v-8.8l7.3 6.5c.2.2.4.3.7.3s.5-.1.7-.3l7.3-6.5V21H8z"/>
        </svg>
        <svg viewBox="0 0 32 32" id="social_neverblog" xmlns="http://www.w3.org/2000/svg">
            <path d="M16 32C7.2 32 0 24.8 0 16S7.2 0 16 0s16 7.2 16 16-7.2 16-16 16zm0-30C8.3 2 2 8.3 2 16s6.3 14 14 14 14-6.3 14-14S23.7 2 16 2z"/>
            <path d="M22.2 21.5c1.6 0 2.8-1.3 2.8-2.9v-6.8c0-1.6-1.3-2.9-2.8-2.9H9.8C8.3 9 7 10.3 7 11.9v6.8c0 1.6 1.3 2.9 2.8 2.9H14l1.4 2.4v.1c.1.1.2.2.4.2s.3-.1.4-.2V24l1.4-2.4h4.6v-.1zm-12.1-7.1c.4-.4.9-.4.9-.4 1.5 0 1.6 1.7 1.6 1.7 0 1.7-1.6 1.7-1.6 1.7-.7 0-.9-.5-.9-.5v.4H9v-4.6h1.1v1.7zm-.1 1.3c0 .4.3.7.7.7s.7-.3.7-.7c0-.4-.3-.7-.7-.7s-.7.3-.7.7zm2.9-3.2v1.1s.5 0 .5.9v2.7h1.1v-3c0 .1 0-1.7-1.6-1.7zm2.3 3.2C15.2 14 17 14 17 14c1.9 0 1.9 1.7 1.9 1.7 0 1.7-1.9 1.7-1.9 1.7-1.8 0-1.8-1.7-1.8-1.7zm1.2 0c0 .4.3.7.7.7.4 0 .7-.3.7-.7 0-.4-.3-.7-.7-.7-.4 0-.7.3-.7.7zm5.6-1.6v.3s-.3-.4-.9-.4c0 0-1.6-.1-1.6 1.7 0 0 0 1.6 1.5 1.6 0 0 .6 0 1-.4v.3s.1.8-.7.8H21v1h.4s1.6 0 1.6-1.7v-3.1l-1-.1zm-.7 2.3c-.4 0-.7-.3-.7-.7 0-.4.3-.7.7-.7.4 0 .7.3.7.7 0 .4-.3.7-.7.7z"/>
        </svg>
        <svg viewBox="0 0 32 32" id="social_pinterest" xmlns="http://www.w3.org/2000/svg">
            <path class="oqst0" d="M16 0C7.2 0 0 7.2 0 16s7.2 16 16 16 16-7.2 16-16S24.8 0 16 0zm0 30C8.3 30 2 23.7 2 16S8.3 2 16 2s14 6.3 14 14-6.3 14-14 14z"/>
            <path class="oqst0" d="M16.3 7.7c-4.5 0-6.8 3.2-6.8 5.9 0 1.6.6 3.1 1.9 3.6.2.1.4 0 .5-.2.1-.2.2-.6.2-.8.1-.2.1-.3-.1-.5-.4-.5-.6-1.1-.6-1.9 0-2.4 1.8-4.5 4.7-4.5 2.6 0 4 1.5 4 3.6 0 2.7-1.2 5-3 5-1 0-1.7-.8-1.5-1.8.2-1.2.8-2.5.8-3.4 0-.8-.4-1.4-1.3-1.4-1 0-1.8 1.1-1.8 2.5 0 .9.3 1.5.3 1.5s-1 4.4-1.2 5.2c-.3 1.5 0 3.4 0 3.6 0 .2.1.2.2.1s1.3-1.6 1.7-3.1c.1-.4.7-2.6.7-2.6.3.6 1.3 1.2 2.3 1.2 3 0 5.1-2.8 5-6.6 0-2.8-2.4-5.4-6-5.4z"/>
        </svg>
        <svg viewBox="0 0 32 32" id="social_tumblr" xmlns="http://www.w3.org/2000/svg">
            <path class="orst0" d="M16 .1C7.2.1 0 7.3 0 16.1s7.2 16 16 16 16-7.2 16-16-7.2-16-16-16zm0 30c-7.7 0-14-6.3-14-14s6.3-14 14-14 14 6.3 14 14-6.3 14-14 14z"/>
            <path class="orst0" d="M18.4 20.8c-1.2 0-1.4-.8-1.4-1.5v-4.6h3v-2.3h-3V8.5h-2.2s-.1 0-.1.1c-.1 1.2-.7 3.2-2.9 4v1.9h1.5v4.9c0 1.7 1.2 4 4.5 4 1.1 0 2.3-.5 2.6-.9l-.8-2c-.3.1-.8.2-1.2.3z"/>
        </svg>
        <svg viewBox="0 0 32 32" id="social_twitter" xmlns="http://www.w3.org/2000/svg">
            <path class="osst0" d="M16 0C7.2 0 0 7.2 0 16s7.2 16 16 16 16-7.2 16-16S24.8 0 16 0zm0 30C8.3 30 2 23.7 2 16S8.3 2 16 2s14 6.3 14 14-6.3 14-14 14z"/>
            <path class="osst0" d="M23.4 10.3c-.6.4-1.3.6-2.1.8-.6-.6-1.5-1-2.4-1-1.8 0-3.3 1.5-3.3 3.3 0 .3 0 .5.1.7-2.7-.1-5.1-1.4-6.8-3.4-.3.5-.4 1.1-.4 1.7 0 1.1.6 2.1 1.5 2.7-.5 0-1-.2-1.5-.4 0 1.6 1.1 2.9 2.6 3.2-.1 0-.4.1-.7.1-.2 0-.4 0-.6-.1.4 1.3 1.6 2.3 3.1 2.3-1.1.9-2.5 1.4-4.1 1.4H8c1.4.9 3.2 1.4 5 1.4 6 0 9.3-5 9.3-9.3v-.4c.6-.5 1.2-1 1.6-1.7-.6.3-1.2.4-1.9.5.7-.4 1.2-1.1 1.4-1.8z"/>
        </svg>
        <svg viewBox="0 0 32 32" id="social_wechat" xmlns="http://www.w3.org/2000/svg">
            <path d="M16 32C7.2 32 0 24.8 0 16S7.2 0 16 0s16 7.2 16 16-7.2 16-16 16zm0-30C8.3 2 2 8.3 2 16s6.3 14 14 14 14-6.3 14-14S23.7 2 16 2z"/>
            <path d="M19.2 12.9c-2.9 0-5.2 2-5.2 4.5 0 .4.1.8.2 1.2h-.4c-.6 0-1.2-.1-1.8-.2h-.4l-1.7 1h-.1c-.1 0-.1-.1-.1-.2l.4-1.5c0-.1 0-.2-.1-.3-1.2-.8-2-2.2-2.1-3.6C8 11.1 10.6 9 13.8 9c2.8 0 5.2 1.7 5.6 3.9h-.2zm-2.6-.7c0-.4-.4-.8-.8-.7h.1c-.4 0-.8.3-.8.8 0 .4.4.8.9.7s.6-.3.6-.8zm-5.5 0c-.1.4.3.8.7.9.4 0 .6-.3.7-.7 0-.4-.3-.8-.7-.9-.3.1-.6.4-.7.7zm8.1 1.2c2.6 0 4.8 1.8 4.8 4 0 1.2-.7 2.3-1.7 3-.1.1-.2.2-.1.4l.2.9v.1h-.1l-1.2-.6h-.4c-.5.1-1 .2-1.5.2-2.6 0-4.8-1.8-4.8-4s2.2-4 4.8-4zm-2.3 2.8c0 .4.3.6.7.6.4 0 .6-.3.6-.6 0-.4-.3-.7-.7-.7-.4 0-.7.3-.6.7zm3.2 0c0 .4.3.6.7.6s.6-.3.6-.6c0-.4-.3-.7-.7-.7-.3 0-.6.3-.6.7z"/>
        </svg>
        <svg viewBox="0 0 32 32" id="social_sinaweibo" xmlns="http://www.w3.org/2000/svg">
            <path d="M16 32C7.2 32 0 24.8 0 16S7.2 0 16 0s16 7.2 16 16-7.2 16-16 16zm0-30C8.3 2 2 8.3 2 16s6.3 14 14 14 14-6.3 14-14S23.7 2 16 2z"/>
            <path d="M23.6 14.9c.6-.1.8-1.2.7-2.1v-.2-.1c-.4-2.3-2.5-3.8-4.8-3.5h-.1c-.3 0-.6.1-.7.4-.1.8.5.7 1 .7h.3c1.7 0 3.1 1.4 3.1 3.1 0 .2 0 .3-.1.5-.1.7-.2 1.3.6 1.2zm-3.1.4c-.2-.1-.4-.2-.5-.3.3-.6.3-1.3 0-1.9-.7-.8-1.9-.4-2.9-.1-.4.1-.7.2-1 .2.4-1.4 0-2.8-1.7-2.4-1.4.4-2.8 1.2-3.8 2.3-1.3 1.1-2.1 2.5-2.5 4.2-.2 2 1.1 3 2.3 3.7 3.6 2 9.4.9 11.3-1.8.3-.4.5-.9.6-1.4.1-1.6-.9-2-1.8-2.5zm-1 2.3c0 .7-.3 1.3-.7 1.8-1.4 1.3-3.3 1.9-5.2 1.7-1.8-.1-4.3-1.2-3.8-3.5.3-.9.9-1.7 1.7-2.1.9-.5 1.9-.8 2.9-.9 2.2-.1 5.1.7 5.1 3zm2.5-4.8c.1.7-.1 1.3-.5 1.3-.5 0-.5-.2-.5-.6v-.4c-.1-.4-.3-.7-.6-.9-.2-.1-.4-.1-.6-.1-.4 0-.7 0-.7-.5s.4-.5.6-.5h.1c1.1-.1 2.1.7 2.2 1.7zm-10.3 6.3c.9 2.5 6 1.1 5-1.8-.4-1-1.5-1.6-2.6-1.4-1.5.2-3 1.5-2.4 3.2zm3.1-1.1c-.2.1-.4 0-.5-.1 0-.5.6-.5.6-.2.1.1 0 .2-.1.3zm-1.3 1.4c.8-.2 1-1.8-.3-1.5-1 .3-.8 1.8.3 1.5z"/>
        </svg>
        <svg viewBox="0 0 32 32" id="social_youtube" xmlns="http://www.w3.org/2000/svg">
            <path class="ovst0" d="M16 0C7.2 0 0 7.2 0 16s7.2 16 16 16 16-7.2 16-16S24.8 0 16 0zm0 30C8.3 30 2 23.7 2 16S8.3 2 16 2s14 6.3 14 14-6.3 14-14 14z"/>
            <path class="ovst0" d="M23 10.1c-1.4-.4-7-.4-7-.4s-5.6 0-7 .4c-.8.2-1.4.8-1.6 1.6C7 13.1 7 16 7 16s0 2.9.4 4.3c.2.8.8 1.4 1.6 1.6 1.4.4 7 .4 7 .4s5.6 0 7-.4c.8-.2 1.4-.8 1.6-1.6.4-1.4.4-4.3.4-4.3s0-2.9-.4-4.3c-.2-.8-.8-1.4-1.6-1.6zm-8.6 8.6v-5.4l4.5 2.7-4.5 2.7z"/>
        </svg>
        <svg viewBox="0 0 32 32" id="social_pencil" xmlns="http://www.w3.org/2000/svg">
            <path class="olst0" d="M16 0C7.2 0 0 7.2 0 16s7.2 16 16 16 16-7.2 16-16S24.8 0 16 0zm0 30C8.3 30 2 23.7 2 16S8.3 2 16 2s14 6.3 14 14-6.3 14-14 14z"/>
            <path class="olst0" d="M14 11.9v2.2h-2.5V17H14v6.9c.5.1 1 .1 1.6.1.5 0 1 0 1.6-.1V17h2.2v-.1l.4-2.9H17v-1.9c0-.8.4-1.6 1.6-1.6H20V8.2S18.9 8 17.8 8C15.5 8 14 9.4 14 11.9z"/>
        </svg>
        <svg viewBox="0 0 32 32" id="social_flag-us" xmlns="http://www.w3.org/2000/svg">
            <path d="M32 16c0-3-.8-5.8-2.3-8.2v-.1c0-.1-.1-.1-.1-.2C26.7 3 21.7 0 16 0S5.3 3 2.4 7.6c0 .1-.1.1-.1.2v.1C.8 10.2 0 13 0 16s.8 5.8 2.3 8.2v.1c0 .1.1.1.1.2C5.3 29 10.3 32 16 32c5.7 0 10.7-3 13.5-7.5.1-.1.1-.2.2-.3v-.1C31.2 21.8 32 19 32 16zM2.1 17h6c.1 1.4.2 2.7.5 3.9-1.7.4-3.3 1-4.9 1.6-1-1.6-1.5-3.5-1.6-5.5zm1.5-7.6c1.6.7 3.2 1.2 4.9 1.6-.2 1.3-.4 2.6-.5 4H2c.2-2 .7-3.9 1.6-5.6zM29.9 15h-6c-.1-1.4-.2-2.7-.5-3.9 1.7-.4 3.3-1 4.9-1.6 1 1.6 1.5 3.5 1.6 5.5zM22 15h-5v-3c1.5 0 3-.2 4.5-.5.3 1.1.4 2.2.5 3.5zm-5-5V3c1.2 1.2 3 3.2 4 6.5-1.3.3-2.6.4-4 .5zm-2-7v7c-1.4 0-2.7-.2-4-.4 1-3.3 2.8-5.4 4-6.6zm0 9v3h-5c.1-1.3.2-2.4.4-3.5 1.6.3 3.1.4 4.6.5zm-5 5h5v3c-1.5 0-3 .2-4.5.5-.3-1.1-.4-2.2-.5-3.5zm5 5v6.9c-1.2-1.2-3-3.3-4-6.5 1.3-.2 2.7-.3 4-.4zm2 7v-7c1.4 0 2.7.2 4 .4-1 3.3-2.8 5.4-4 6.6zm0-9v-3h5c-.1 1.3-.2 2.4-.4 3.5-1.6-.3-3.1-.4-4.6-.5zm7-3h6c-.1 2-.7 3.9-1.6 5.6-1.6-.7-3.2-1.2-4.9-1.6.2-1.3.4-2.6.5-4zm3.3-9.3c-1.4.6-2.8 1.1-4.3 1.4-1-3.1-2.5-5.3-3.8-6.8 3.3.8 6.1 2.8 8.1 5.4zM12.9 2.4C11.5 3.8 10 6 9 9.1c-1.5-.3-2.9-.8-4.3-1.4 2-2.6 4.8-4.6 8.2-5.3zM4.7 24.3c1.4-.6 2.8-1.1 4.3-1.4 1 3.1 2.5 5.3 3.8 6.8-3.3-.8-6.1-2.8-8.1-5.4zm14.4 5.3c1.3-1.4 2.9-3.6 3.8-6.8 1.4.4 2.9.8 4.3 1.4-1.9 2.7-4.7 4.7-8.1 5.4z"/>
        </svg>
        <svg viewBox="0 0 32 32" id="social_flag-default" xmlns="http://www.w3.org/2000/svg">
            <path d="M32 16c0-3-.8-5.8-2.3-8.2v-.1c0-.1-.1-.1-.1-.2C26.7 3 21.7 0 16 0S5.3 3 2.4 7.6c0 .1-.1.1-.1.2v.1C.8 10.2 0 13 0 16s.8 5.8 2.3 8.2v.1c0 .1.1.1.1.2C5.3 29 10.3 32 16 32c5.7 0 10.7-3 13.5-7.5.1-.1.1-.2.2-.3v-.1C31.2 21.8 32 19 32 16zM2.1 17h6c.1 1.4.2 2.7.5 3.9-1.7.4-3.3 1-4.9 1.6-1-1.6-1.5-3.5-1.6-5.5zm1.5-7.6c1.6.7 3.2 1.2 4.9 1.6-.2 1.3-.4 2.6-.5 4H2c.2-2 .7-3.9 1.6-5.6zM29.9 15h-6c-.1-1.4-.2-2.7-.5-3.9 1.7-.4 3.3-1 4.9-1.6 1 1.6 1.5 3.5 1.6 5.5zM22 15h-5v-3c1.5 0 3-.2 4.5-.5.3 1.1.4 2.2.5 3.5zm-5-5V3c1.2 1.2 3 3.2 4 6.5-1.3.3-2.6.4-4 .5zm-2-7v7c-1.4 0-2.7-.2-4-.4 1-3.3 2.8-5.4 4-6.6zm0 9v3h-5c.1-1.3.2-2.4.4-3.5 1.6.3 3.1.4 4.6.5zm-5 5h5v3c-1.5 0-3 .2-4.5.5-.3-1.1-.4-2.2-.5-3.5zm5 5v6.9c-1.2-1.2-3-3.3-4-6.5 1.3-.2 2.7-.3 4-.4zm2 7v-7c1.4 0 2.7.2 4 .4-1 3.3-2.8 5.4-4 6.6zm0-9v-3h5c-.1 1.3-.2 2.4-.4 3.5-1.6-.3-3.1-.4-4.6-.5zm7-3h6c-.1 2-.7 3.9-1.6 5.6-1.6-.7-3.2-1.2-4.9-1.6.2-1.3.4-2.6.5-4zm3.3-9.3c-1.4.6-2.8 1.1-4.3 1.4-1-3.1-2.5-5.3-3.8-6.8 3.3.8 6.1 2.8 8.1 5.4zM12.9 2.4C11.5 3.8 10 6 9 9.1c-1.5-.3-2.9-.8-4.3-1.4 2-2.6 4.8-4.6 8.2-5.3zM4.7 24.3c1.4-.6 2.8-1.1 4.3-1.4 1 3.1 2.5 5.3 3.8 6.8-3.3-.8-6.1-2.8-8.1-5.4zm14.4 5.3c1.3-1.4 2.9-3.6 3.8-6.8 1.4.4 2.9.8 4.3 1.4-1.9 2.7-4.7 4.7-8.1 5.4z"/>
        </svg>
        <svg viewBox="0 0 32 32" id="units_measurement_calendar" xmlns="http://www.w3.org/2000/svg">
            <path class="pmst0" d="M29 6h-2V2c0-1.2-.8-2-2-2h-3c-1.2 0-2 .8-2 2v4h-8V2c0-1.2-.8-2-2-2H7C5.8 0 5 .8 5 2v4H3C1.3 6 0 7.3 0 9v20c0 1.7 1.3 3 3 3h26c1.7 0 3-1.3 3-3V9c0-1.7-1.3-3-3-3zm-7-4h3v6h-3V2c-.1 0 0 0 0 0zM7 2h3v6H7V2c-.1 0 0 0 0 0zm23 27c0 .6-.4 1-1 1H3c-.6 0-1-.4-1-1V15h28v14zm0-16H2V9c0-.6.4-1 1-1h2c0 1.2.8 2 2 2h3c1.2 0 2-.8 2-2h8c0 1.2.8 2 2 2h3c1.2 0 2-.8 2-2h2c.6 0 1 .4 1 1v4z"/>
        </svg>

        <svg viewBox="0 0 32 32" id="social_globe" xmlns="http://www.w3.org/2000/svg">
          <path class="olst0" d="M16 0C7.2 0 0 7.2 0 16s7.2 16 16 16 16-7.2 16-16S24.8 0 16 0zm0 30C8.3 30 2 23.7 2 16S8.3 2 16 2s14 6.3 14 14-6.3 14-14 14z"/>
          <path class="olst0" d="M14 11.9v2.2h-2.5V17H14v6.9c.5.1 1 .1 1.6.1.5 0 1 0 1.6-.1V17h2.2v-.1l.4-2.9H17v-1.9c0-.8.4-1.6 1.6-1.6H20V8.2S18.9 8 17.8 8C15.5 8 14 9.4 14 11.9z"/>
        </svg>

        <svg viewBox="0 0 32 32" id="brand_offers_s" xmlns="http://www.w3.org/2000/svg"><path d="M30.7 3.4c-.1-1.1-1-2-2.2-2.2L18.1 0c-.3 0-.6.1-.8.3L.3 15.8c-.2.1-.3.4-.3.7s.1.5.3.7l13.5 14.5c.2.2.4.3.7.3.3 0 .5-.1.7-.3l16.5-17c.2-.2.3-.5.3-.8L30.7 3.4zM14.5 29.5l-12.1-13L18.3 2l10 1.2c.2 0 .4.2.4.4l1.2 10-15.4 15.9z"/><path d="M13.7 9.3c-.4-.4-1-.4-1.4 0s-.4 1 0 1.4l9 9c.2.2.5.3.7.3s.5-.1.7-.3c.4-.4.4-1 0-1.4l-9-9zM11.7 15.3c-.4-.4-1-.4-1.4 0s-.4 1 0 1.4l5 5c.2.2.5.3.7.3.2 0 .5-.1.7-.3.4-.4.4-1 0-1.4l-5-5zM23 7c-1.1 0-2 .9-2 2s.9 2 2 2c.5 0 1-.2 1.4-.6.4-.4.6-.9.6-1.4 0-1.1-.9-2-2-2z"/></svg>
        <svg viewBox="0 0 32 32" id="brand_packaging_empty_s" xmlns="http://www.w3.org/2000/svg"><path d="M31.4 13.1L29.2 12l2.2-1.1c.3-.2.5-.5.6-.9 0-.4-.2-.7-.5-.9l-11-6c-.3-.2-.6-.2-.9 0L16 4.9l-3.6-1.8c-.3-.1-.6-.1-.9 0l-11 6c-.3.2-.5.5-.5.9s.2.7.6.9L2.8 12 .6 13.1c-.4.2-.6.5-.6.9s.2.7.6.9L4 16.5V23c0 .4.2.7.6.9l11 5c.1.1.3.1.4.1s.3 0 .4-.1l11-5c.4-.2.6-.5.6-.9v-6.5l3.4-1.6c.4-.2.6-.5.6-.9s-.2-.7-.6-.9zm-6.6-1.2l-8.8 4-8.8-4L16 7.1l8.8 4.8zM12 5.1l1.8.9L5 10.9 3.2 10 12 5.1zM3.3 14l1.7-.9 8.7 3.9-1.7.9L3.3 14zM26 22.4l-10 4.5-10-4.5v-5l5.6 2.5c.3.1.6.1.9 0l3.6-1.8 3.6 1.8c0 .1.1.1.3.1.1 0 .3 0 .4-.1l5.6-2.5v5zm-6-4.5l-1.7-.9 8.7-3.9 1.7.8-8.7 4zm7-7L18.2 6l1.8-.9 8.9 4.8-1.9 1z"/></svg>
        <svg viewBox="0 0 32 32" id="brand_freight_dolly_s" xmlns="http://www.w3.org/2000/svg"><path d="M27.3 21.6c-.1-.1-.2-.1-.3-.1V6c0-.4-.2-.7-.5-.9l-9-5c-.3-.2-.7-.2-1 0s-.5.5-.5.9v11.4l-8.4 3.7c-.1 0-.2.1-.3.2v.1l-.2.2c-.1.1-.1.2-.1.3v7.4L3.6 26c-.4.3-.6.6-.6 1s.2.7.6.9l9 4c.1.1.3.1.4.1.2 0 .3 0 .4-.1l9.3-4.7c.2.5.5.9.9 1.2.3.2.7.3 1.1.3s.8-.1 1.3-.3c1.5-.9 2.4-2.6 2.5-4.3 0-1.2-.4-2-1.2-2.5zM18 2.7l7 3.9v8.9l-7-3.1V2.7zm-5 27.2L6.4 27l1.6-.9 6.6 2.9-1.6.9zm3-2.5l-7-3.1v-5.8l7 3.1v5.8zM10.5 17l6.5-2.9 6.5 2.9-6.5 2.9-6.5-2.9zm12.1 8.1L18 27.4v-5.7l7-3.1v3.1c-1.3.7-2.1 2-2.4 3.4zm2.4 1.5c-.1.1-.2.1-.3.1-.1-.1-.2-.3-.2-.7 0-1.1.6-2.1 1.5-2.6.1-.1.2-.1.3-.1.1.1.2.3.2.6 0 1.2-.6 2.2-1.5 2.7z"/></svg>
        <svg viewBox="0 0 32 32" id="utility_item_lookup" xmlns="http://www.w3.org/2000/svg"><path class="qist0" d="M31.7 30.3l-3.9-3.9c.8-1.1 1.2-2.5 1.2-3.9 0-3.9-3.1-7-7-7s-7 3.1-7 7 3.1 7 7 7c1.7 0 3.3-.6 4.5-1.6l3.8 3.8 1.4-1.4zM22 27.5c-2.8 0-5-2.2-5-5s2.2-5 5-5 5 2.2 5 5-2.2 5-5 5z"/><path class="qist0" d="M12 8h12v6h2V7c0-.3-.1-.5-.3-.7l-6-6c-.2-.2-.4-.3-.7-.3H7c-.3 0-.5.1-.7.3l-6 6c-.2.2-.3.4-.3.7v18c0 .6.4 1 1 1h13v-2H2V8h10zm10.6-2H14V2h4.6l4 4zM7.4 2H12v4H3.4l4-4z"/></svg>
        <svg viewBox="0 0 32 32" id="units_measurement_location" xmlns="http://www.w3.org/2000/svg"><path class="post0" d="M16 0C9.5 0 4 5 4 11c0 3 .5 5.6 2.7 8.6L9 22.7c2.3 3.1 5.4 7.3 6.2 8.4.2.3.5.4.8.4s.6-.1.8-.4c2.1-2.8 7-9.4 8.5-11.5 1.9-2.7 2.7-5.2 2.7-8.6 0-6-5.5-11-12-11zm7.7 18.4c-1.3 1.9-5.3 7.3-7.7 10.4-1.3-1.8-3.6-4.9-5.4-7.3l-2.3-3.1C6.4 15.8 6 13.7 6 11c0-4.9 4.6-9 10-9s10 4.1 10 9c0 3-.6 5.1-2.3 7.4z"/><path class="post0" d="M16 7c-2.8 0-5 2.2-5 5s2.2 5 5 5 5-2.2 5-5-2.2-5-5-5zm0 8c-1.7 0-3-1.3-3-3s1.3-3 3-3 3 1.3 3 3-1.3 3-3 3z"/></svg>
        <svg viewBox="0 0 32 32" id="brand_vacation_s" xmlns="http://www.w3.org/2000/svg"><path d="M31 8H21V4c0-.6-.4-1-1-1h-8c-.6 0-1 .4-1 1v4H1c-.6 0-1 .4-1 1v19c0 .6.4 1 1 1h30c.6 0 1-.4 1-1V9c0-.6-.4-1-1-1zm-8 2v17H9V10h14zM13 5h6v3h-6V5zM2 10h5v17H2V10zm28 17h-5V10h5v17z"/></svg>
        <svg viewBox="0 0 32 32" id="utility_attach" xmlns="http://www.w3.org/2000/svg"><path class="psst0" d="M24 25V10h-2v15.1s.1 1.8-1.2 3.2c-1.1 1.2-2.9 1.7-5.3 1.7s-4.2-.6-5.3-1.7C8.9 26.9 9 25.1 9 25V6s0-1.6 1.1-2.8C10.8 2.4 12 2 13.5 2s2.7.4 3.4 1.2C18 4.3 18 5.9 18 6v18s0 .8-.5 1.3c-.4.4-1.1.6-2 .6-.9 0-1.5-.2-2-.6-.5-.5-.5-1.3-.5-1.3V10h-2v14c0 .2 0 1.6 1.1 2.8.8.8 2 1.3 3.4 1.3 1.5 0 2.6-.4 3.4-1.3C20 25.6 20 24.1 20 24V6c0-.1.1-2.5-1.6-4.2C17.2.6 15.6 0 13.5 0S9.8.6 8.6 1.8C6.9 3.6 7 5.9 7 6v18.9c0 .1-.2 2.6 1.7 4.7 1.5 1.6 3.8 2.4 6.8 2.4s5.3-.8 6.8-2.4c1.9-2 1.7-4.6 1.7-4.6z"/></svg>
        <svg viewBox="0 0 32 32" id="utility_download" xmlns="http://www.w3.org/2000/svg"><path class="pyst0" d="M16 28c.3 0 .5-.1.7-.3l9-9-1.4-1.4-7.3 7.3V1h-2v23.6l-7.3-7.3-1.4 1.4 9 9c.2.2.4.3.7.3z"/><path class="pyst0" d="M30 24v6H2v-6H0v7c0 .6.4 1 1 1h30c.6 0 1-.4 1-1v-7h-2z"/></svg>
        <svg viewBox="0 0 32 32" id="utility_bell" xmlns="http://www.w3.org/2000/svg"><path class="ptst0" d="M29.1 23.7c-3-2-4.1-5.1-4.1-11.2 0-3.5-2.2-6.1-5.7-7.1.2-.6.3-1.2.3-1.7 0-1.5-1.2-3.7-3.7-3.7s-3.7 2.2-3.7 3.7c0 .6.1 1.2.4 1.8-3.4 1-5.6 3.6-5.6 7 0 6.1-1.1 9.1-4 11.2-.9.6-1 1.3-1 1.6 0 .4.2 1.1 1.1 1.6 1.2.7 3.1 1 8 1.1.3 2.3 2.3 4 4.9 4 2.6 0 4.7-1.8 5-4.1 4.4-.1 6.7-.4 8-1 .9-.5 1.2-1.1 1.2-1.5 0-.6-.4-1.2-1.1-1.7zM14.6 5c-.2-.4-.4-.9-.4-1.3 0-.3.3-1.7 1.7-1.7s1.7 1.4 1.7 1.7c0 .5-.2 1-.3 1.2l-.1.1h-2.6zm4.3 23c-.3 1.3-1.6 2-2.9 2-1.3 0-2.7-.7-2.9-2h5.8zM16 26c-7.6 0-10.5-.2-11.8-.8 4-2.8 4.8-7.1 4.8-12.7C9 8.4 12.8 7 16 7s7 1.4 7 5.5c0 5.6.8 9.9 4.8 12.7-1.6.6-5.1.8-11.8.8z"/></svg>
        <svg viewBox="0 0 32 32" id="utility_link" xmlns="http://www.w3.org/2000/svg"><path class="qjst0" d="M28.8 3.2C25.9.3 21.2.3 18.3 3.2l-3.7 3.7L16 8.3l3.7-3.7c2.1-2.1 5.6-2.1 7.7 0s2.1 5.6 0 7.7l-5.5 5.5c-2.1 2.1-5.6 2.1-7.7 0-.5-.5-.9-1.1-1.2-1.8l-1.9.7c.4 1 .9 1.8 1.6 2.6 1.4 1.4 3.3 2.2 5.3 2.2s3.9-.8 5.3-2.2l5.5-5.5c2.9-3 2.9-7.7 0-10.6z"/><path class="qjst0" d="M12.3 27.4c-1 1-2.4 1.6-3.8 1.6-1.5 0-2.8-.6-3.8-1.6-2.1-2.1-2.1-5.6 0-7.7l5.5-5.5c2.1-2.1 5.6-2.1 7.7 0 .5.5.9 1.2 1.2 1.8l1.9-.7c-.4-1-.9-1.9-1.6-2.6-1.4-1.4-3.3-2.2-5.3-2.2s-3.9.8-5.3 2.2l-5.5 5.5c-2.9 2.9-2.9 7.6 0 10.5C4.6 30.3 6.5 31 8.5 31c1.9 0 3.8-.7 5.3-2.2l3.7-3.7-1.5-1.4-3.7 3.7z"/></svg>
        <svg viewBox="0 0 32 32" id="brand_search_s" xmlns="http://www.w3.org/2000/svg"><path d="M31.7 30.3L21.6 20.2c1.8-2.1 2.9-4.9 2.9-7.9C24.5 5.5 19 0 12.2 0S0 5.5 0 12.3C0 19 5.5 24.5 12.2 24.5c3 0 5.8-1.1 7.9-2.9l10.1 10.1c.2.2.5.3.7.3s.5-.1.7-.3c.5-.4.5-1 .1-1.4zM2 12.3C2 6.6 6.6 2 12.2 2c5.7 0 10.2 4.6 10.2 10.2s-4.6 10.2-10.2 10.2C6.6 22.5 2 17.9 2 12.3z"/></svg>
        <svg viewBox="0 0 32 32" id="communication_devices_live_chat" xmlns="http://www.w3.org/2000/svg"><path class="lhst0" d="M15.2 21c1.3-1.2 2.1-2.8 2.1-4.7 0-3.5-2.8-6.3-6.3-6.3s-6.3 2.8-6.3 6.3c0 1.9.8 3.6 2.2 4.7-4.2 1-6.7 4.5-6.9 9.9v1h22v-1c-.2-5.4-2.6-8.9-6.8-9.9zM11 12c2.4 0 4.3 1.9 4.3 4.3s-1.9 4.3-4.3 4.3-4.3-1.9-4.3-4.3S8.6 12 11 12zM2.1 30c.5-4.8 3-7.3 7.6-7.3h2.6c4.6 0 7.2 2.5 7.6 7.3H2.1zM30 0H18c-1 0-2 1-2 2v7c0 1 1 2 2 2h1v3c0 .4.3.8.7.9.1 0 .2.1.3.1.3 0 .6-.1.8-.4l3-3.6H30c1 0 2-1 2-2V2c0-1-1-2-2-2zm0 9h-6.4c-.2 0-.3 0-.4.1-.5.3-.7.4-.8.6L21 11.2V10c0-.6-.4-1-1-1h-2V2h12v7z"/></svg>
        <svg viewBox="0 0 32 32" id="communication_devices_mail" xmlns="http://www.w3.org/2000/svg"><path class="list0" d="M31 6H1c-.6 0-1 .4-1 1v18c0 .6.4 1 1 1h30c.6 0 1-.4 1-1V7c0-.6-.4-1-1-1zM16.5 16.8L4.1 8H28l-11.5 8.8zm-4.8-1L2 23V8.9l9.7 6.9zm1.7 1.2l2.5 1.8c.2.1.4.2.6.2.2 0 .4-.1.6-.2l2.4-1.8 8.7 7H4l9.4-7zm7.7-1.3L30 9v13.9l-8.9-7.2z"/></svg>
        <svg viewBox="0 0 32 32" id="communication_devices_phone" xmlns="http://www.w3.org/2000/svg"><path class="lost0" d="M24 31c-.2 0-.4-.1-.6-.2-.4-.2-9.1-6.1-13.1-10.1-4.1-4-9-11.8-9.2-12.2-.1-.2-.1-.4-.1-.7 0-.1.6-2.8 2.3-4.5 1.6-1.6 3.3-2.2 3.4-2.2.2-.1.4-.1.6 0 .2.1 1.8.6 3.9 2.7s2.7 3.7 2.7 3.9c.1.2.1.4.1.5l-.9 3.5 7.2 7.2 3.5-.9h.6c.2.1 1.8.6 3.9 2.7s2.7 3.7 2.7 3.9c.1.3 0 .7-.2.9 0 .1-1.1 1.4-3.1 3.2-2.1 1.7-3.2 2.1-3.4 2.2-.1.1-.2.1-.3.1zM3.1 7.8c1 1.6 5.2 8.1 8.7 11.5 3.3 3.4 10.4 8.3 12.3 9.6.4-.2 1.2-.7 2.3-1.6 1.2-1 2-1.9 2.5-2.4-.3-.5-.9-1.5-2-2.6-1.3-1.3-2.4-1.9-2.9-2.2l-3.8.9c-.3.1-.7 0-.9-.3l-8-8c-.3-.2-.4-.6-.3-.9l.9-3.7c-.2-.5-.8-1.6-2.1-2.9C8.5 3.9 7.5 3.3 7 3.1c-.5.2-1.4.7-2.3 1.6-.9.9-1.4 2.3-1.6 3.1z"/></svg> 

        <svg viewBox="0 0 32 32" id="status_confirm" xmlns="http://www.w3.org/2000/svg"><g fill="none" stroke-width="2" stroke-linejoin="round" stroke-miterlimit="10"><polyline points="7,16 13,22 24,11"/><path d="M16,1C7.7,1,1,7.7,1,16 s6.7,15,15,15s15-6.7,15-15S24.3,1,16,1z"/></g></svg>
        <svg viewBox="0 0 32 32" id="status_circle_close" xmlns="http://www.w3.org/2000/svg"><g stroke-width="2" stroke-miterlimit="10"><path d="M16,1C7.7,1,1,7.7,1,16s6.7,15,15,15s15-6.7,15-15 S24.3,1,16,1z"/><line x1="9" y1="9" x2="23" y2="23"/><line x1="23" y1="9" x2="9" y2="23"/></g></svg>

        <svg viewBox="0 0 32 32" id="social_globe" xmlns="http://www.w3.org/2000/svg">
          <path class="olst0" d="M16 0C7.2 0 0 7.2 0 16s7.2 16 16 16 16-7.2 16-16S24.8 0 16 0zm0 30C8.3 30 2 23.7 2 16S8.3 2 16 2s14 6.3 14 14-6.3 14-14 14z"/>
          <path class="olst0" d="M14 11.9v2.2h-2.5V17H14v6.9c.5.1 1 .1 1.6.1.5 0 1 0 1.6-.1V17h2.2v-.1l.4-2.9H17v-1.9c0-.8.4-1.6 1.6-1.6H20V8.2S18.9 8 17.8 8C15.5 8 14 9.4 14 11.9z"/>
      </svg>
        <svg viewBox="0 0 32 32" id="navigational_arrow_up" xmlns="http://www.w3.org/2000/svg"><path class="nmst0" d="M29.7 13.3l-13-13c-.4-.4-1-.4-1.4 0l-13 13 1.4 1.4L15 3.4V32h2V3.4l11.3 11.3 1.4-1.4z"/></svg>
    </defs>
</svg>