<svg viewBox="0 0 32 32" id="units_measurement_location" xmlns="http://www.w3.org/2000/svg"><path class="post0" d="M16 0C9.5 0 4 5 4 11c0 3 .5 5.6 2.7 8.6L9 22.7c2.3 3.1 5.4 7.3 6.2 8.4.2.3.5.4.8.4s.6-.1.8-.4c2.1-2.8 7-9.4 8.5-11.5 1.9-2.7 2.7-5.2 2.7-8.6 0-6-5.5-11-12-11zm7.7 18.4c-1.3 1.9-5.3 7.3-7.7 10.4-1.3-1.8-3.6-4.9-5.4-7.3l-2.3-3.1C6.4 15.8 6 13.7 6 11c0-4.9 4.6-9 10-9s10 4.1 10 9c0 3-.6 5.1-2.3 7.4z"/><path class="post0" d="M16 7c-2.8 0-5 2.2-5 5s2.2 5 5 5 5-2.2 5-5-2.2-5-5-5zm0 8c-1.7 0-3-1.3-3-3s1.3-3 3-3 3 1.3 3 3-1.3 3-3 3z"/></svg>