<svg viewBox="0 0 32 32" id="social_linkedin" xmlns="http://www.w3.org/2000/svg">
            <path class="onst0" d="M16-.1c-8.8 0-16 7.2-16 16s7.2 16 16 16 16-7.2 16-16-7.2-16-16-16zm0 30c-7.7 0-14-6.3-14-14s6.3-14 14-14 14 6.3 14 14-6.3 14-14 14z"/>
            <path class="onst0" d="M10 13.7h3.4v8.1H10z"/>
            <circle class="onst0" cx="11.7" cy="10.7" r="1.7"/>
            <path class="onst0" d="M17.7 14.5v-.8H15v8.2h2.8v-4.7c0-1.6 2.5-1.5 2.7 0V22h2.6v-6.4c-.5-2.6-4.6-2.5-5.4-1.1z"/>
        </svg>