<svg viewBox="0 0 32 32" id="brand_help_questions_s" xmlns="http://www.w3.org/2000/svg">
            <path d="M15 21h2v2h-2zM16 8.5c-4 0-4 3.5-4 3.5h2c0-.5.2-1 .6-1.4.4-.4.9-.6 1.4-.6s1.1.2 1.4.6c.4.4.6.9.6 1.4 0 .6-.1 1.2-.4 1.7-.4.6-.8 1.1-1.3 1.7-.5.4-.9.8-1.2 1.4-.1.7-.2 1.4-.1 2.2h2c0-2.2-.1-2.1.4-2.6.6-.6 1.2-1.3 1.7-2s.8-1.6.9-2.4c0-3-2.7-3.5-4-3.5z"/>
            <path d="M16 0C7.2 0 0 7.2 0 16s7.2 16 16 16 16-7.2 16-16S24.8 0 16 0zm0 30C8.3 30 2 23.7 2 16S8.3 2 16 2s14 6.3 14 14-6.3 14-14 14z"/>
        </svg>