<svg viewBox="0 0 32 32" id="brand_profile_s" xmlns="http://www.w3.org/2000/svg">
            <path d="M16 0C7.2 0 0 7.2 0 16s7.2 16 16 16 16-7.2 16-16S24.8 0 16 0zm0 30c-3.4 0-6.5-1.2-8.9-3.2l1.6-5.6c.3-1.3 1.5-2.2 2.8-2.2h8.9c1.3 0 2.5.9 2.9 2.2l1.6 5.6c-2.4 2-5.5 3.2-8.9 3.2zm-5-18c0-2.8 2.2-5 5-5s5 2.2 5 5-2.2 5-5 5-5-2.2-5-5zm15.5 13.2l-1.3-4.5c-.6-2-2.4-3.5-4.4-3.6 1.3-1.3 2.1-3.1 2.1-5 0-3.9-3.1-7-7-7s-7 3.1-7 7c0 2 .8 3.8 2.1 5-2.1.2-3.9 1.6-4.4 3.6l-1.3 4.5C3.3 22.7 2 19.5 2 16 2 8.3 8.3 2 16 2s14 6.3 14 14c0 3.5-1.3 6.7-3.5 9.2z"/>
        </svg>