<svg viewBox="0 0 32 32" id="brand_returns_s" xmlns="http://www.w3.org/2000/svg">
            <path d="M17 8h-2c-1.4 0-4 1-4 5v5.6l-1.3-1.3c-.4-.4-1-.4-1.4 0-.4.4-.4 1 0 1.4l3 3c.2.2.5.3.7.3s.5-.1.7-.3l3-3c.4-.4.4-1 0-1.4-.4-.4-1-.4-1.4 0L13 18.6V13c0-2.8 1.7-3 2-3h2c.1 0 2 0 2 3v9c0 .6.4 1 1 1s1-.4 1-1v-9c0-4-2.6-5-4-5z"/>
            <path d="M30.7 13.3l-12-12C18 .6 17.1.1 16.1 0h-.2c-1 .1-1.9.6-2.6 1.3l-12 12C.6 14 .1 14.9 0 15.9v.2c.1 1 .6 1.9 1.3 2.6l12 12c.7.7 1.6 1.2 2.6 1.3h.2c1-.1 1.9-.6 2.6-1.3l12-12c.7-.7 1.2-1.6 1.3-2.6v-.3c-.1-.9-.6-1.8-1.3-2.5zm-1.4 4l-12 12c-.4.4-.8.6-1.3.7-.5-.1-.9-.3-1.3-.7l-12-12c-.3-.4-.6-.8-.7-1.3.1-.5.3-.9.7-1.3l12-12c.4-.3.8-.6 1.3-.7.5.1.9.3 1.3.7l12 12c.4.3.6.8.7 1.3-.1.5-.4.9-.7 1.3z"/>
        </svg>