<svg viewBox="0 0 32 32" id="social_sinaweibo" xmlns="http://www.w3.org/2000/svg">
            <path d="M16 32C7.2 32 0 24.8 0 16S7.2 0 16 0s16 7.2 16 16-7.2 16-16 16zm0-30C8.3 2 2 8.3 2 16s6.3 14 14 14 14-6.3 14-14S23.7 2 16 2z"/>
            <path d="M23.6 14.9c.6-.1.8-1.2.7-2.1v-.2-.1c-.4-2.3-2.5-3.8-4.8-3.5h-.1c-.3 0-.6.1-.7.4-.1.8.5.7 1 .7h.3c1.7 0 3.1 1.4 3.1 3.1 0 .2 0 .3-.1.5-.1.7-.2 1.3.6 1.2zm-3.1.4c-.2-.1-.4-.2-.5-.3.3-.6.3-1.3 0-1.9-.7-.8-1.9-.4-2.9-.1-.4.1-.7.2-1 .2.4-1.4 0-2.8-1.7-2.4-1.4.4-2.8 1.2-3.8 2.3-1.3 1.1-2.1 2.5-2.5 4.2-.2 2 1.1 3 2.3 3.7 3.6 2 9.4.9 11.3-1.8.3-.4.5-.9.6-1.4.1-1.6-.9-2-1.8-2.5zm-1 2.3c0 .7-.3 1.3-.7 1.8-1.4 1.3-3.3 1.9-5.2 1.7-1.8-.1-4.3-1.2-3.8-3.5.3-.9.9-1.7 1.7-2.1.9-.5 1.9-.8 2.9-.9 2.2-.1 5.1.7 5.1 3zm2.5-4.8c.1.7-.1 1.3-.5 1.3-.5 0-.5-.2-.5-.6v-.4c-.1-.4-.3-.7-.6-.9-.2-.1-.4-.1-.6-.1-.4 0-.7 0-.7-.5s.4-.5.6-.5h.1c1.1-.1 2.1.7 2.2 1.7zm-10.3 6.3c.9 2.5 6 1.1 5-1.8-.4-1-1.5-1.6-2.6-1.4-1.5.2-3 1.5-2.4 3.2zm3.1-1.1c-.2.1-.4 0-.5-.1 0-.5.6-.5.6-.2.1.1 0 .2-.1.3zm-1.3 1.4c.8-.2 1-1.8-.3-1.5-1 .3-.8 1.8.3 1.5z"/>
        </svg>