<svg viewBox="0 0 32 32" id="payment_currency_amount" xmlns="http://www.w3.org/2000/svg">
            <path class="nyst0" d="M16 0C7.2 0 0 7.2 0 16s7.2 16 16 16 16-7.2 16-16S24.8 0 16 0zm0 30C8.3 30 2 23.7 2 16S8.3 2 16 2s14 6.3 14 14-6.3 14-14 14z"/>
            <path class="nyst0" d="M17 15.2v-5.1c.8.2 1.5.7 1.5 1.9h2c0-2.1-1.3-3.6-3.5-3.9V6h-2v2.1c-1 .2-1.8.6-2.4 1.2-.8.8-1.1 1.9-1.1 3.3.1 2.5 2.3 3.7 3.5 4.2v5.1c-1.3-.5-1.5-2.1-1.5-2.8h-2c0 2.2 1.1 4.4 3.5 4.9v2h2v-2.1c1.3-.2 2.1-.8 2.6-1.3.8-.9 1.1-2.3.9-3.7-.4-2.3-2.4-3.3-3.5-3.7zm-3.5-2.7c0-.8.1-1.4.5-1.8.3-.3.6-.4 1-.5v4.4c-.7-.5-1.5-1.1-1.5-2.1zm4.6 8.8c-.3.3-.6.5-1.1.6v-4.5c.7.3 1.4.9 1.5 1.7.1.6.1 1.5-.4 2.2z"/>
        </svg>