<svg viewBox="0 0 32 32" id="utility_link" xmlns="http://www.w3.org/2000/svg"><path class="qjst0" d="M28.8 3.2C25.9.3 21.2.3 18.3 3.2l-3.7 3.7L16 8.3l3.7-3.7c2.1-2.1 5.6-2.1 7.7 0s2.1 5.6 0 7.7l-5.5 5.5c-2.1 2.1-5.6 2.1-7.7 0-.5-.5-.9-1.1-1.2-1.8l-1.9.7c.4 1 .9 1.8 1.6 2.6 1.4 1.4 3.3 2.2 5.3 2.2s3.9-.8 5.3-2.2l5.5-5.5c2.9-3 2.9-7.7 0-10.6z"/><path class="qjst0" d="M12.3 27.4c-1 1-2.4 1.6-3.8 1.6-1.5 0-2.8-.6-3.8-1.6-2.1-2.1-2.1-5.6 0-7.7l5.5-5.5c2.1-2.1 5.6-2.1 7.7 0 .5.5.9 1.2 1.2 1.8l1.9-.7c-.4-1-.9-1.9-1.6-2.6-1.4-1.4-3.3-2.2-5.3-2.2s-3.9.8-5.3 2.2l-5.5 5.5c-2.9 2.9-2.9 7.6 0 10.5C4.6 30.3 6.5 31 8.5 31c1.9 0 3.8-.7 5.3-2.2l3.7-3.7-1.5-1.4-3.7 3.7z"/></svg>