<svg viewBox="0 0 32 32" id="brand_packaging_empty_s" xmlns="http://www.w3.org/2000/svg"><path d="M31.4 13.1L29.2 12l2.2-1.1c.3-.2.5-.5.6-.9 0-.4-.2-.7-.5-.9l-11-6c-.3-.2-.6-.2-.9 0L16 4.9l-3.6-1.8c-.3-.1-.6-.1-.9 0l-11 6c-.3.2-.5.5-.5.9s.2.7.6.9L2.8 12 .6 13.1c-.4.2-.6.5-.6.9s.2.7.6.9L4 16.5V23c0 .4.2.7.6.9l11 5c.1.1.3.1.4.1s.3 0 .4-.1l11-5c.4-.2.6-.5.6-.9v-6.5l3.4-1.6c.4-.2.6-.5.6-.9s-.2-.7-.6-.9zm-6.6-1.2l-8.8 4-8.8-4L16 7.1l8.8 4.8zM12 5.1l1.8.9L5 10.9 3.2 10 12 5.1zM3.3 14l1.7-.9 8.7 3.9-1.7.9L3.3 14zM26 22.4l-10 4.5-10-4.5v-5l5.6 2.5c.3.1.6.1.9 0l3.6-1.8 3.6 1.8c0 .1.1.1.3.1.1 0 .3 0 .4-.1l5.6-2.5v5zm-6-4.5l-1.7-.9 8.7-3.9 1.7.8-8.7 4zm7-7L18.2 6l1.8-.9 8.9 4.8-1.9 1z"/></svg>