<svg viewBox="0 0 32 32" id="brand_freight_dolly_s" xmlns="http://www.w3.org/2000/svg"><path d="M27.3 21.6c-.1-.1-.2-.1-.3-.1V6c0-.4-.2-.7-.5-.9l-9-5c-.3-.2-.7-.2-1 0s-.5.5-.5.9v11.4l-8.4 3.7c-.1 0-.2.1-.3.2v.1l-.2.2c-.1.1-.1.2-.1.3v7.4L3.6 26c-.4.3-.6.6-.6 1s.2.7.6.9l9 4c.1.1.3.1.4.1.2 0 .3 0 .4-.1l9.3-4.7c.2.5.5.9.9 1.2.3.2.7.3 1.1.3s.8-.1 1.3-.3c1.5-.9 2.4-2.6 2.5-4.3 0-1.2-.4-2-1.2-2.5zM18 2.7l7 3.9v8.9l-7-3.1V2.7zm-5 27.2L6.4 27l1.6-.9 6.6 2.9-1.6.9zm3-2.5l-7-3.1v-5.8l7 3.1v5.8zM10.5 17l6.5-2.9 6.5 2.9-6.5 2.9-6.5-2.9zm12.1 8.1L18 27.4v-5.7l7-3.1v3.1c-1.3.7-2.1 2-2.4 3.4zm2.4 1.5c-.1.1-.2.1-.3.1-.1-.1-.2-.3-.2-.7 0-1.1.6-2.1 1.5-2.6.1-.1.2-.1.3-.1.1.1.2.3.2.6 0 1.2-.6 2.2-1.5 2.7z"/></svg>