<svg viewBox="0 0 32 32" id="social_instagram" xmlns="http://www.w3.org/2000/svg">
            <path class="omst0" d="M16 0C7.2 0 0 7.2 0 16s7.2 16 16 16 16-7.2 16-16S24.8 0 16 0zm0 30C8.3 30 2 23.7 2 16S8.3 2 16 2s14 6.3 14 14-6.3 14-14 14z"/>
            <path class="omst0" d="M22.6 9.3c-.4-.4-.9-.7-1.4-.9-.5-.2-1.1-.3-1.9-.4h-6.6c-.9 0-1.4.2-1.9.4s-1 .5-1.4.9c-.4.4-.7.9-.9 1.4s-.3 1.1-.4 1.9v6.6c0 .9.2 1.4.4 1.9s.5 1 .9 1.4c.4.4.9.7 1.4.9.5.2 1.1.3 1.9.4h6.6c.9 0 1.4-.2 1.9-.4s1-.5 1.4-.9c.4-.4.7-.9.9-1.4s.3-1.1.4-1.9v-3.3-3.3c0-.9-.2-1.4-.4-1.9s-.5-1-.9-1.4zm-.1 6.6v3.2c0 .8-.2 1.2-.3 1.5-.1.4-.3.6-.6.9-.3.3-.5.5-.9.6-.3.1-.7.2-1.5.3h-6.4c-.8 0-1.2-.2-1.5-.3-.4-.1-.6-.3-.9-.6-.3-.3-.5-.5-.6-.9-.1-.3-.2-.7-.3-1.5v-3.2-3.2c0-.8.2-1.2.3-1.5.1-.4.3-.6.6-.9.3-.3.5-.5.9-.6.3-.1.7-.2 1.5-.3h6.4c.8 0 1.2.2 1.5.3.4.1.6.3.9.6.3.3.5.5.6.9.1.3.2.7.3 1.5v3.2z"/>
            <path class="omst0" d="M16 11.9c-2.3 0-4.1 1.8-4.1 4.1s1.8 4.1 4.1 4.1 4.1-1.8 4.1-4.1-1.8-4.1-4.1-4.1zm0 6.8c-1.5 0-2.7-1.2-2.7-2.7s1.2-2.7 2.7-2.7 2.7 1.2 2.7 2.7-1.2 2.7-2.7 2.7z"/>
            <circle class="omst0" cx="20.3" cy="11.7" r="1"/>
        </svg>