<svg viewBox="0 0 32 32" id="units_measurement_calendar" xmlns="http://www.w3.org/2000/svg">
            <path class="pmst0" d="M29 6h-2V2c0-1.2-.8-2-2-2h-3c-1.2 0-2 .8-2 2v4h-8V2c0-1.2-.8-2-2-2H7C5.8 0 5 .8 5 2v4H3C1.3 6 0 7.3 0 9v20c0 1.7 1.3 3 3 3h26c1.7 0 3-1.3 3-3V9c0-1.7-1.3-3-3-3zm-7-4h3v6h-3V2c-.1 0 0 0 0 0zM7 2h3v6H7V2c-.1 0 0 0 0 0zm23 27c0 .6-.4 1-1 1H3c-.6 0-1-.4-1-1V15h28v14zm0-16H2V9c0-.6.4-1 1-1h2c0 1.2.8 2 2 2h3c1.2 0 2-.8 2-2h8c0 1.2.8 2 2 2h3c1.2 0 2-.8 2-2h2c.6 0 1 .4 1 1v4z"/>
        </svg>