<svg viewBox="0 0 32 32" id="brand_rate_ship_s" xmlns="http://www.w3.org/2000/svg">
            <path d="M32 7c0-.1 0-.1 0 0 0-.2 0-.3-.1-.4v-.1c-.1-.1-.1-.2-.2-.3h-.1c-.1 0-.1-.1-.2-.1l-10-5c-.3-.1-.6-.1-.9 0l-10 5c-.1 0-.1.1-.2.1h-.1c-.1.1-.2.2-.2.3v.1c0 .1-.1.2-.1.3V10c0 .6.4 1 1 1s1-.4 1-1V8.6l8 4v7.8l-2.6-1.3c-.5-.2-1.1 0-1.3.4s0 1.1.4 1.3l4 2c.3.2.4.2.6.2s.3 0 .4-.1l10-5c.3-.2.6-.5.6-.9V7zM21 3.1l2.8 1.4L16 8.4 13.2 7 21 3.1zm-2.8 6.4L26 5.6 28.8 7 21 10.9l-2.8-1.4zM22 20.4v-7.8l8-4v7.8l-8 4z"/>
            <path d="M13 12H2c-1.1 0-2 .9-2 2v16c0 1.1.9 2 2 2h11c1.1 0 2-.9 2-2V14c0-1.1-.9-2-2-2zm0 18H2V14h11v16z"/>
            <path d="M4 21h7c.6 0 1-.4 1-1v-3c0-.6-.4-1-1-1H4c-.6 0-1 .4-1 1v3c0 .6.4 1 1 1zm1-3h5v1H5v-1z"/>
        </svg>