<svg viewBox="0 0 32 32" id="brand_currency_usd_s" xmlns="http://www.w3.org/2000/svg">
            <path d="M16 0C7.2 0 0 7.2 0 16s7.2 16 16 16 16-7.2 16-16S24.8 0 16 0zm0 30C8.3 30 2 23.7 2 16S8.3 2 16 2s14 6.3 14 14-6.3 14-14 14z"/>
            <path d="M18 13.5c0 .6.4 1 1 1s1-.4 1-1c0-1.8-1.3-3.2-3-3.4V8c0-.6-.4-1-1-1s-1 .4-1 1v2.1c-1.7.2-3 1.7-3 3.4s1.3 3.2 3 3.4v3c-.6-.2-1-.8-1-1.4s-.4-1-1-1-1 .4-1 1c0 1.8 1.3 3.2 3 3.4V24c0 .6.4 1 1 1s1-.4 1-1v-2.1c1.7-.2 3-1.7 3-3.4s-1.3-3.2-3-3.4v-3c.6.2 1 .7 1 1.4zm-4 0c0-.7.4-1.2 1-1.4v2.8c-.6-.2-1-.7-1-1.4zm4 5c0 .7-.4 1.2-1 1.4v-2.8c.6.2 1 .7 1 1.4z"/>
        </svg>