<svg viewBox="0 0 32 32" id="utility_attach" xmlns="http://www.w3.org/2000/svg"><path class="psst0" d="M24 25V10h-2v15.1s.1 1.8-1.2 3.2c-1.1 1.2-2.9 1.7-5.3 1.7s-4.2-.6-5.3-1.7C8.9 26.9 9 25.1 9 25V6s0-1.6 1.1-2.8C10.8 2.4 12 2 13.5 2s2.7.4 3.4 1.2C18 4.3 18 5.9 18 6v18s0 .8-.5 1.3c-.4.4-1.1.6-2 .6-.9 0-1.5-.2-2-.6-.5-.5-.5-1.3-.5-1.3V10h-2v14c0 .2 0 1.6 1.1 2.8.8.8 2 1.3 3.4 1.3 1.5 0 2.6-.4 3.4-1.3C20 25.6 20 24.1 20 24V6c0-.1.1-2.5-1.6-4.2C17.2.6 15.6 0 13.5 0S9.8.6 8.6 1.8C6.9 3.6 7 5.9 7 6v18.9c0 .1-.2 2.6 1.7 4.7 1.5 1.6 3.8 2.4 6.8 2.4s5.3-.8 6.8-2.4c1.9-2 1.7-4.6 1.7-4.6z"/></svg>