<svg viewBox="0 0 32 32" id="social_pinterest" xmlns="http://www.w3.org/2000/svg">
            <path class="oqst0" d="M16 0C7.2 0 0 7.2 0 16s7.2 16 16 16 16-7.2 16-16S24.8 0 16 0zm0 30C8.3 30 2 23.7 2 16S8.3 2 16 2s14 6.3 14 14-6.3 14-14 14z"/>
            <path class="oqst0" d="M16.3 7.7c-4.5 0-6.8 3.2-6.8 5.9 0 1.6.6 3.1 1.9 3.6.2.1.4 0 .5-.2.1-.2.2-.6.2-.8.1-.2.1-.3-.1-.5-.4-.5-.6-1.1-.6-1.9 0-2.4 1.8-4.5 4.7-4.5 2.6 0 4 1.5 4 3.6 0 2.7-1.2 5-3 5-1 0-1.7-.8-1.5-1.8.2-1.2.8-2.5.8-3.4 0-.8-.4-1.4-1.3-1.4-1 0-1.8 1.1-1.8 2.5 0 .9.3 1.5.3 1.5s-1 4.4-1.2 5.2c-.3 1.5 0 3.4 0 3.6 0 .2.1.2.2.1s1.3-1.6 1.7-3.1c.1-.4.7-2.6.7-2.6.3.6 1.3 1.2 2.3 1.2 3 0 5.1-2.8 5-6.6 0-2.8-2.4-5.4-6-5.4z"/>
        </svg>