<svg viewBox="0 0 32 32" id="utility_bell" xmlns="http://www.w3.org/2000/svg"><path class="ptst0" d="M29.1 23.7c-3-2-4.1-5.1-4.1-11.2 0-3.5-2.2-6.1-5.7-7.1.2-.6.3-1.2.3-1.7 0-1.5-1.2-3.7-3.7-3.7s-3.7 2.2-3.7 3.7c0 .6.1 1.2.4 1.8-3.4 1-5.6 3.6-5.6 7 0 6.1-1.1 9.1-4 11.2-.9.6-1 1.3-1 1.6 0 .4.2 1.1 1.1 1.6 1.2.7 3.1 1 8 1.1.3 2.3 2.3 4 4.9 4 2.6 0 4.7-1.8 5-4.1 4.4-.1 6.7-.4 8-1 .9-.5 1.2-1.1 1.2-1.5 0-.6-.4-1.2-1.1-1.7zM14.6 5c-.2-.4-.4-.9-.4-1.3 0-.3.3-1.7 1.7-1.7s1.7 1.4 1.7 1.7c0 .5-.2 1-.3 1.2l-.1.1h-2.6zm4.3 23c-.3 1.3-1.6 2-2.9 2-1.3 0-2.7-.7-2.9-2h5.8zM16 26c-7.6 0-10.5-.2-11.8-.8 4-2.8 4.8-7.1 4.8-12.7C9 8.4 12.8 7 16 7s7 1.4 7 5.5c0 5.6.8 9.9 4.8 12.7-1.6.6-5.1.8-11.8.8z"/></svg>