<svg viewBox="0 0 32 32" id="payment_currency_refund" xmlns="http://www.w3.org/2000/svg">
            <path class="oast0" d="M2.5 12.4C4.4 5 12.2.5 19.7 2.5c2.8.8 5.3 2.4 7.1 4.5H23v2h6c.6 0 1-.4 1-1V2h-2v3.4c-2.1-2.3-4.8-4-7.8-4.9C11.6-1.7 2.8 3.4.5 11.9.2 13.4 0 14.8 0 16h2c0-1.1.2-2.3.5-3.6zM30 16c0 1.1-.1 2.1-.5 3.5-.9 3.6-3.3 6.6-6.5 8.5-3.3 1.9-7 2.4-10.7 1.4-2.8-.8-5.2-2.3-7-4.4H9v-2H3.9s0-.1-.1-.1l-.1.1H3c-.6 0-1 .4-1 1v6h2v-3.5c2.1 2.3 4.8 4 7.8 4.9 1.4.4 2.8.5 4.1.5 2.8 0 5.5-.7 8-2.1 3.7-2.1 6.4-5.6 7.5-9.7.4-1.6.5-2.8.5-4H30z"/>
            <path class="oast0" d="M17 26v-2.1c1.3-.2 2.1-.8 2.6-1.3.8-.9 1.1-2.3.9-3.7-.4-2.2-2.4-3.2-3.5-3.6v-5.1c.8.2 1.5.7 1.5 1.9h2c0-2.1-1.3-3.6-3.5-3.9V6h-2v2.1c-1 .2-1.8.6-2.4 1.2-.8.8-1.1 1.9-1.1 3.3.1 2.5 2.3 3.7 3.5 4.2v5.1c-1.3-.5-1.5-2.1-1.5-2.8h-2c0 2.2 1.1 4.4 3.5 4.9v2h2zm1.5-6.9c.1.5.1 1.5-.5 2.1-.3.3-.6.5-1.1.6v-4.5c.8.4 1.5 1 1.6 1.8zm-5-6.6c0-.8.1-1.4.5-1.8.3-.3.6-.4 1-.5v4.4c-.7-.5-1.5-1.1-1.5-2.1z"/>
        </svg>