<svg viewBox="0 0 32 32" id="agent" xmlns="http://www.w3.org/2000/svg">
            <path class="abst0" d="M27.9 29.8c-.4-2.1-.9-5.1-1.3-6.9-.6-3.1-3.1-5.4-6.2-5.8 1.8-1.8 2.2-4.6 1.1-6.9v-.1c1.6-1 2.5-2.3 2.5-3.7 0-2.8-3.6-5-8.2-5-4.7 0-8.3 2.2-8.3 5 0 1.4.9 2.7 2.6 3.7 0 .1.1.3.1.4-.9 2.3-.4 4.9 1.3 6.6-3.1.4-5.6 2.7-6.4 5.8-.2 1-.5 2.6-.9 4.2-.2 1-.4 2.1-.6 3.1-.1.5.2 1.1.8 1.2h.2c.5 0 .9-.3 1-.8.2-1 .4-2 .6-3.1.3-1.6.7-3.2.9-4.2.6-2.5 2.8-4.3 5.3-4.3h2.5v11.4c0 .6.4 1 1 1s1-.4 1-1V19h2.5c2.5.1 4.6 1.9 5.2 4.3.4 1.7.9 4.8 1.3 6.8l.1.5c.1.5.6.9 1.2.8.5-.1.9-.6.8-1.2l-.1-.4zM19.6 9.4c0 .7-1.5 1.6-3.8 1.6S12 10 12 9.4v-.7c1.3-.1 2.5-.2 3.8-.2 1.2 0 2.5 0 3.8.1v.8zm-7.8 2.7c1 .6 2.4 1 4 1 1.7 0 3.2-.4 4.2-1.1.3 1.5-.2 3-1.4 4-1.5 1.3-3.7 1.3-5.3.1-1.2-1-1.7-2.5-1.5-4zM9.5 6.4c0-1.4 2.7-3 6.3-3 3.7 0 6.2 1.6 6.2 3 0 .4-.2.8-.5 1.1-.1-.4-.4-.7-.9-.8-1.6-.2-3.3-.3-4.9-.2-1.6 0-3.3.1-4.9.3-.4 0-.8.4-.9.8-.2-.4-.4-.8-.4-1.2z"/>
        </svg>