<svg viewBox="0 0 32 32" id="social_neverblog" xmlns="http://www.w3.org/2000/svg">
            <path d="M16 32C7.2 32 0 24.8 0 16S7.2 0 16 0s16 7.2 16 16-7.2 16-16 16zm0-30C8.3 2 2 8.3 2 16s6.3 14 14 14 14-6.3 14-14S23.7 2 16 2z"/>
            <path d="M22.2 21.5c1.6 0 2.8-1.3 2.8-2.9v-6.8c0-1.6-1.3-2.9-2.8-2.9H9.8C8.3 9 7 10.3 7 11.9v6.8c0 1.6 1.3 2.9 2.8 2.9H14l1.4 2.4v.1c.1.1.2.2.4.2s.3-.1.4-.2V24l1.4-2.4h4.6v-.1zm-12.1-7.1c.4-.4.9-.4.9-.4 1.5 0 1.6 1.7 1.6 1.7 0 1.7-1.6 1.7-1.6 1.7-.7 0-.9-.5-.9-.5v.4H9v-4.6h1.1v1.7zm-.1 1.3c0 .4.3.7.7.7s.7-.3.7-.7c0-.4-.3-.7-.7-.7s-.7.3-.7.7zm2.9-3.2v1.1s.5 0 .5.9v2.7h1.1v-3c0 .1 0-1.7-1.6-1.7zm2.3 3.2C15.2 14 17 14 17 14c1.9 0 1.9 1.7 1.9 1.7 0 1.7-1.9 1.7-1.9 1.7-1.8 0-1.8-1.7-1.8-1.7zm1.2 0c0 .4.3.7.7.7.4 0 .7-.3.7-.7 0-.4-.3-.7-.7-.7-.4 0-.7.3-.7.7zm5.6-1.6v.3s-.3-.4-.9-.4c0 0-1.6-.1-1.6 1.7 0 0 0 1.6 1.5 1.6 0 0 .6 0 1-.4v.3s.1.8-.7.8H21v1h.4s1.6 0 1.6-1.7v-3.1l-1-.1zm-.7 2.3c-.4 0-.7-.3-.7-.7 0-.4.3-.7.7-.7.4 0 .7.3.7.7 0 .4-.3.7-.7.7z"/>
        </svg>