<svg viewBox="0 0 32 32" id="social_twitter" xmlns="http://www.w3.org/2000/svg">
            <path class="osst0" d="M16 0C7.2 0 0 7.2 0 16s7.2 16 16 16 16-7.2 16-16S24.8 0 16 0zm0 30C8.3 30 2 23.7 2 16S8.3 2 16 2s14 6.3 14 14-6.3 14-14 14z"/>
            <path class="osst0" d="M23.4 10.3c-.6.4-1.3.6-2.1.8-.6-.6-1.5-1-2.4-1-1.8 0-3.3 1.5-3.3 3.3 0 .3 0 .5.1.7-2.7-.1-5.1-1.4-6.8-3.4-.3.5-.4 1.1-.4 1.7 0 1.1.6 2.1 1.5 2.7-.5 0-1-.2-1.5-.4 0 1.6 1.1 2.9 2.6 3.2-.1 0-.4.1-.7.1-.2 0-.4 0-.6-.1.4 1.3 1.6 2.3 3.1 2.3-1.1.9-2.5 1.4-4.1 1.4H8c1.4.9 3.2 1.4 5 1.4 6 0 9.3-5 9.3-9.3v-.4c.6-.5 1.2-1 1.6-1.7-.6.3-1.2.4-1.9.5.7-.4 1.2-1.1 1.4-1.8z"/>
        </svg>