<svg viewBox="0 0 32 32" id="brand_courier_s" xmlns="http://www.w3.org/2000/svg">
            <path d="M27.7 21.3c-.1-.2-.4-.3-.7-.3h-.6l-.1-.9c-.5-3-2.8-5.4-5.7-6 1.8-1.5 2.9-3.7 2.9-6.2 0-.3 0-.7-.1-1H26c.6 0 1-.4 1-1s-.4-1-1-1h-3.1c-1.2-2.9-4.1-5-7.4-5-4.4 0-8 3.6-8 8 0 2.5 1.2 4.8 3 6.2-2.7.7-4.8 3-5.2 5.9L4 30.9c-.1.5.3 1 .9 1.1H5c.5 0 .9-.4 1-.9l1.3-10.7c.3-2.5 2.4-4.4 5-4.4h6.9c2.6 0 4.7 1.9 5.1 4.4l.1.6h-5.3l-.2-.4c-.2-.5-.8-.7-1.3-.4-.5.2-.7.8-.4 1.3l5 10c.2.4.5.6.9.6.2 0 .3 0 .4-.1.5-.2.7-.8.4-1.3L20.1 23h5.8l-.9 7.9c-.1.5.3 1 .9 1.1h.1c.5 0 .9-.4 1-.9l1-9c0-.3-.1-.6-.3-.8zM15.5 2c2.2 0 4.1 1.2 5.2 3H10.3c1.1-1.8 3-3 5.2-3zm-6 6c0-.3 0-.7.1-1h11.8c.1.3.1.7.1 1 0 3.3-2.7 6-6 6s-6-2.7-6-6z"/>
            <path d="M11.9 20.6c-.1-.1-.1-.2-.2-.3l-.1-.1c-.1 0-.1-.1-.2-.1s-.1 0-.2-.1H10.6s-.1 0-.1.1c-.1 0-.1.1-.2.1l-.1.1c0 .1-.1.1-.1.2s0 .1-.1.2v.1l-2 10c-.1.5.2 1.1.8 1.2H9c.5 0 .9-.3 1-.8l1.3-6.7 2.8 6.9c.2.4.5.6.9.6.1 0 .2 0 .4-.1.5-.2.8-.8.6-1.3l-4.1-10z"/>
        </svg>