<svg viewBox="0 0 32 32" id="communication_devices_phone" xmlns="http://www.w3.org/2000/svg"><path class="lost0" d="M24 31c-.2 0-.4-.1-.6-.2-.4-.2-9.1-6.1-13.1-10.1-4.1-4-9-11.8-9.2-12.2-.1-.2-.1-.4-.1-.7 0-.1.6-2.8 2.3-4.5 1.6-1.6 3.3-2.2 3.4-2.2.2-.1.4-.1.6 0 .2.1 1.8.6 3.9 2.7s2.7 3.7 2.7 3.9c.1.2.1.4.1.5l-.9 3.5 7.2 7.2 3.5-.9h.6c.2.1 1.8.6 3.9 2.7s2.7 3.7 2.7 3.9c.1.3 0 .7-.2.9 0 .1-1.1 1.4-3.1 3.2-2.1 1.7-3.2 2.1-3.4 2.2-.1.1-.2.1-.3.1zM3.1 7.8c1 1.6 5.2 8.1 8.7 11.5 3.3 3.4 10.4 8.3 12.3 9.6.4-.2 1.2-.7 2.3-1.6 1.2-1 2-1.9 2.5-2.4-.3-.5-.9-1.5-2-2.6-1.3-1.3-2.4-1.9-2.9-2.2l-3.8.9c-.3.1-.7 0-.9-.3l-8-8c-.3-.2-.4-.6-.3-.9l.9-3.7c-.2-.5-.8-1.6-2.1-2.9C8.5 3.9 7.5 3.3 7 3.1c-.5.2-1.4.7-2.3 1.6-.9.9-1.4 2.3-1.6 3.1z"/></svg>