<svg viewBox="0 0 32 32" id="brand_offers_s" xmlns="http://www.w3.org/2000/svg"><path d="M30.7 3.4c-.1-1.1-1-2-2.2-2.2L18.1 0c-.3 0-.6.1-.8.3L.3 15.8c-.2.1-.3.4-.3.7s.1.5.3.7l13.5 14.5c.2.2.4.3.7.3.3 0 .5-.1.7-.3l16.5-17c.2-.2.3-.5.3-.8L30.7 3.4zM14.5 29.5l-12.1-13L18.3 2l10 1.2c.2 0 .4.2.4.4l1.2 10-15.4 15.9z"/><path d="M13.7 9.3c-.4-.4-1-.4-1.4 0s-.4 1 0 1.4l9 9c.2.2.5.3.7.3s.5-.1.7-.3c.4-.4.4-1 0-1.4l-9-9zM11.7 15.3c-.4-.4-1-.4-1.4 0s-.4 1 0 1.4l5 5c.2.2.5.3.7.3.2 0 .5-.1.7-.3.4-.4.4-1 0-1.4l-5-5zM23 7c-1.1 0-2 .9-2 2s.9 2 2 2c.5 0 1-.2 1.4-.6.4-.4.6-.9.6-1.4 0-1.1-.9-2-2-2z"/></svg>