<svg viewBox="0 0 32 32" id="brand_track_s" xmlns="http://www.w3.org/2000/svg">
            <path d="M21 12c0 .6.4 1 1 1s1-.4 1-1V5.9c0-.1 0-.2-.1-.3v-.1c0-.1-.1-.2-.2-.2-.1-.1-.2-.1-.3-.2l-10-4c-.2-.1-.5-.1-.7 0l-11 4c-.1 0-.2.1-.3.2l-.1.1c-.1 0-.1.1-.2.1v.1c-.1.1-.1.2-.1.3V17c0 .4.2.7.6.9l11 5c.1.1.3.1.4.1.2 0 .4-.1.5-.2.3-.2.5-.5.5-.8V11.6l8-4V12zm-10 8.5l-9-4.1V7.6l9 4.1v8.8zm1-10.6L3.6 6.1l8.4-3 7.6 3L12 9.9z"/>
            <path d="M31.7 30.3l-5.1-5.1C27.5 24 28 22.6 28 21c0-3.9-3.1-7-7-7s-7 3.1-7 7 3.1 7 7 7c1.6 0 3-.5 4.2-1.4l5.1 5.1c.2.2.5.3.7.3s.5-.1.7-.3c.4-.4.4-1 0-1.4zM21 26c-2.8 0-5-2.2-5-5s2.2-5 5-5 5 2.2 5 5-2.2 5-5 5z"/>
        </svg>