<svg viewBox="0 0 32 32" id="social_youtube" xmlns="http://www.w3.org/2000/svg">
            <path class="ovst0" d="M16 0C7.2 0 0 7.2 0 16s7.2 16 16 16 16-7.2 16-16S24.8 0 16 0zm0 30C8.3 30 2 23.7 2 16S8.3 2 16 2s14 6.3 14 14-6.3 14-14 14z"/>
            <path class="ovst0" d="M23 10.1c-1.4-.4-7-.4-7-.4s-5.6 0-7 .4c-.8.2-1.4.8-1.6 1.6C7 13.1 7 16 7 16s0 2.9.4 4.3c.2.8.8 1.4 1.6 1.6 1.4.4 7 .4 7 .4s5.6 0 7-.4c.8-.2 1.4-.8 1.6-1.6.4-1.4.4-4.3.4-4.3s0-2.9-.4-4.3c-.2-.8-.8-1.4-1.6-1.6zm-8.6 8.6v-5.4l4.5 2.7-4.5 2.7z"/>
        </svg>