<svg viewBox="0 0 32 32" id="communication_devices_live_chat" xmlns="http://www.w3.org/2000/svg"><path class="lhst0" d="M15.2 21c1.3-1.2 2.1-2.8 2.1-4.7 0-3.5-2.8-6.3-6.3-6.3s-6.3 2.8-6.3 6.3c0 1.9.8 3.6 2.2 4.7-4.2 1-6.7 4.5-6.9 9.9v1h22v-1c-.2-5.4-2.6-8.9-6.8-9.9zM11 12c2.4 0 4.3 1.9 4.3 4.3s-1.9 4.3-4.3 4.3-4.3-1.9-4.3-4.3S8.6 12 11 12zM2.1 30c.5-4.8 3-7.3 7.6-7.3h2.6c4.6 0 7.2 2.5 7.6 7.3H2.1zM30 0H18c-1 0-2 1-2 2v7c0 1 1 2 2 2h1v3c0 .4.3.8.7.9.1 0 .2.1.3.1.3 0 .6-.1.8-.4l3-3.6H30c1 0 2-1 2-2V2c0-1-1-2-2-2zm0 9h-6.4c-.2 0-.3 0-.4.1-.5.3-.7.4-.8.6L21 11.2V10c0-.6-.4-1-1-1h-2V2h12v7z"/></svg>